<?xml version="1.0" encoding="utf-8"?>
<!-- Generator: Adobe Illustrator 25.3.1, SVG Export Plug-In . SVG Version: 6.00 Build 0)  -->
<svg version="1.0" id="Layer_1" xmlns="http://www.w3.org/2000/svg" xmlns:xlink="http://www.w3.org/1999/xlink" x="0px" y="0px" viewBox="0 0 240 53" enable-background="new 0 0 240 53" xml:space="preserve">

	<defs>
		<rect id="SVGID_1_" width="180.3" height="53"/>
	</defs>

	<clipPath id="SVGID_2_">
		<use xlink:href="#SVGID_1_"  overflow="visible"/>
	</clipPath>
	
	<g id="alinma_symbol" transform="translate(-95,0)">
		<path fill="none" stroke="#FFFFFF" stroke-width="2" stroke-miterlimit="10" d="M188,1v51h51V1C239,1,188,1,188,1z M220.7,43.9l-14.4,4.2V8.9l14.4-4V43.9z" stroke-linecap="square" stroke-dashoffset="307" stroke-dasharray="307">
			<animate id="stroke_alinma_symbol" attributeName="stroke-dashoffset" values="307;614" dur="0.75s" fill="freeze" />
			<animate id="fill_alinma_symbol" attributeName="fill" values="#FFFFFF00; #FFFFFF" begin="stroke_alinma_symbol.end" dur="0.75s" fill="freeze" />
		</path>
	</g>

	<g clip-path="url(#SVGID_2_)">
		<g id="alinma_logo_text" opacity="0" transform="translate(-100,0)">
			<path fill="#FFFFFF" d="M119.5,33.1v5.8c-0.5-0.1-1.1-0.1-1.6-0.1c-4.2,0-6.7,3-6.7,7.3c0,3.6,1.5,5.9,4.6,5.9
				c1.7,0.1,3.3-0.9,4-2.4h0.1c-0.1,0.7-0.1,1.4-0.2,2.1h3V33.1H119.5z M119.5,45.1c0,2.2-1,4.2-2.7,4.2c-1.5,0-2.2-1.2-2.2-3.6
				c0-1.6,0.3-2.6,0.9-3.3s1.4-1,2.3-1c0.6,0,1.1,0.1,1.7,0.2C119.5,41.6,119.5,45.1,119.5,45.1z"/>
			<path fill="#FFFFFF" d="M167.8,39v6.1c0,2.2-1.3,4.1-2.9,4.1c-1.2,0-1.6-0.8-1.6-2.1V39H160v8.9c0,2.2,0.9,4,3.8,4
				c1.8,0.1,3.5-0.9,4.3-2.5l0,0c-0.1,0.8-0.2,1.5-0.2,2.3h3.1V39H167.8z"/>
			<path fill="#FFFFFF" d="M136.2,51.7c-0.1-1.1-0.1-2.2-0.1-3.3v-5.2c0-2.8-1.2-4.5-5.1-4.5c-1.6,0-3.3,0.3-4.8,0.9l0.5,2.5
				c1.2-0.5,2.5-0.8,3.8-0.9c1.7,0,2.3,0.7,2.3,2.2v0.5c-4.5,0-7.3,1.4-7.3,4.4c-0.1,1,0.3,1.9,1,2.6c0.7,0.7,1.7,1.1,2.6,1
				c1.7,0.1,3.3-0.9,4.1-2.4c-0.1,0.7-0.1,1.4-0.1,2.2H136.2z M132.9,46.4c0.1,1.6-1.1,2.9-2.7,3.1c-0.4,0-0.8-0.1-1.1-0.4
				s-0.5-0.7-0.4-1.1c0-1.1,0.9-1.9,4.2-1.9V46.4z"/>
			<path fill="#FFFFFF" d="M108.5,51.7c-0.1-1.1-0.1-2.2-0.1-3.3v-5.2c0-2.8-1.2-4.5-5.1-4.5c-1.7,0-3.3,0.3-4.8,0.9l0.5,2.5
				c1.2-0.5,2.5-0.8,3.8-0.9c1.7,0,2.3,0.7,2.3,2.2v0.5c-4.5,0-7.3,1.4-7.3,4.4c-0.1,1,0.3,1.9,1,2.6c0.7,0.7,1.7,1.1,2.6,1
				c1.7,0.1,3.3-0.9,4.1-2.4c-0.1,0.7-0.1,1.4-0.1,2.2H108.5z M105.2,46.4c0.1,1.6-1.1,2.9-2.7,3.1c-0.4,0-0.8-0.1-1.1-0.4
				s-0.5-0.7-0.4-1.1c0-1.1,0.9-1.9,4.2-1.9V46.4z"/>
			<path fill="#FFFFFF" d="M78.8,51.7c-0.1-1.1-0.1-2.2-0.1-3.3v-5.2c0-2.8-1.2-4.5-5.1-4.5c-1.6,0-3.3,0.3-4.8,0.9l0.5,2.5
				c1.2-0.5,2.5-0.8,3.8-0.9c1.7,0,2.3,0.7,2.3,2.2v0.5c-4.5,0-7.3,1.4-7.3,4.4c-0.1,1,0.3,1.9,1,2.6c0.7,0.7,1.7,1.1,2.6,1
				c1.7,0.1,3.3-0.9,4.1-2.4c-0.1,0.7-0.1,1.4-0.1,2.2H78.8z M75.4,46.4c0.1,1.6-1.1,2.9-2.7,3.1c-0.4,0-0.8-0.1-1.1-0.4
				s-0.5-0.7-0.4-1.1c0-1.1,0.9-1.9,4.2-1.9V46.4z"/>
			<rect x="174.6" y="33.1" fill="#FFFFFF" width="3.3" height="18.6"/>
			<path fill="#FFFFFF" d="M154.6,39l-1.5,5c-0.3,1.3-0.6,2.4-0.9,3.7h-0.1c-0.3-1.3-0.6-2.4-1-3.8l-1.6-4.8h-3.1l-1.5,5
				c-0.4,1.2-0.7,2.4-0.9,3.7l0,0c-0.3-1.3-0.7-2.6-1-3.8l-1.4-4.8h-3.5l3.9,12.7h3.4l1.6-5.3c0.3-1,0.6-2,0.9-3.2l0,0
				c0.2,1.1,0.5,2,0.7,2.9l1.8,5.6h3.5l4-12.7h-3.3L154.6,39L154.6,39z"/>
			<polygon fill="#FFFFFF" points="86.4,34.5 86.4,37.3 90.9,37.3 90.9,51.7 94.2,51.7 94.2,37.3 98.7,37.3 98.7,34.5 		"/>
			<path fill="#FFFFFF" d="M61.5,38.8c-1.8,0-3.4,1-4.1,2.5c-0.4-1.6-1.9-2.7-3.5-2.5c-1.8,0-3.4,1-4.2,2.6l0,0
				c0.1-0.7,0.2-1.5,0.2-2.3h-3.1v12.7h3.3v-6.1c0-2.4,1.4-4.1,2.9-4.1c1.3,0,1.5,0.9,1.5,2.2v8.1h3.2v-6.1c0-2.5,1.5-4.1,2.9-4.1
				c1.2,0,1.5,0.8,1.5,2.2v8h3.3v-8.7C65.3,40.1,63.9,38.8,61.5,38.8z"/>
			<path fill="#FFFFFF" d="M39.3,38.8c-1.8-0.1-3.5,0.9-4.3,2.5l0,0c0.1-0.7,0.2-1.5,0.2-2.3h-3.1v12.7h3.3v-6.1
				c0-2.2,1.3-4.1,2.9-4.1c1.2,0,1.6,0.8,1.6,2.1v8.1h3.2v-8.9C43.1,40.6,42.2,38.8,39.3,38.8z"/>
			<rect x="25.3" y="39" fill="#FFFFFF" width="3.3" height="12.7"/>
			<rect x="18.5" y="33.1" fill="#FFFFFF" width="3.3" height="18.6"/>
			<path fill="#FFFFFF" d="M10.6,34.5H6.7l-6,17.2h3.4l1.2-3.5h6.5l1.2,3.5h3.7L10.6,34.5z M6,45.6l1.8-5.1c0.3-0.9,0.5-1.7,0.7-2.4
				c0.2,0.8,0.4,1.5,0.7,2.4l1.8,5.1H6z"/>
			<path fill="#FFFFFF" d="M28.3,33.7c-0.6-0.6-1.5-0.7-2.2-0.4c-0.8,0.3-1.2,1.1-1.2,1.9c0,0.5,0.2,1,0.6,1.4s0.9,0.6,1.4,0.6
				c0.8,0,1.6-0.5,1.9-1.3C29.1,35.1,28.9,34.3,28.3,33.7z"/>
			<path fill="#FFFFFF" d="M83.9,24.2c-1.2,0-1.6-0.3-1.6-0.8c0-0.4,0.4-0.7,1.1-0.7c0.4,0,0.8,0.1,1.2,0.1l0.3-1.8
				c-0.5-0.1-1-0.1-1.5-0.1c-2.5,0-3.5,1.3-3.5,2.6c0,0.3,0.1,0.6,0.3,0.9c-0.4-0.1-0.8-0.1-1.3-0.1v1.9h6.5v-1.9h-1.5V24.2z"/>
			<path fill="#FFFFFF" d="M130.6,6.9c-4.7,0-6.8,3.1-6.8,6.4c0,3.6,1.9,5.9,6.9,5.9h2v0.4c0,2.4-1.8,3.4-4.4,3.4
				c-1.3,0-2.7-0.2-4-0.4l-0.2,2.7c1.3,0.2,2.6,0.3,3.9,0.3c5.7,0,8-2.9,8-6.4V7.7C134.3,7.2,132.5,6.9,130.6,6.9z M132.7,16.5h-1.6
				c-2.7,0-3.8-1.3-3.8-3.6c0-1,0.3-1.8,0.8-2.4c0.5-0.6,1.3-1,2.2-1c0.8,0,1.7,0.1,2.4,0.5L132.7,16.5L132.7,16.5z"/>
			<path fill="#FFFFFF" d="M117.4,1.2v16.3c0,3.8-1.3,4.9-3.2,4.9c-1.8,0-3.5-1-3.5-4.9c0-1.7,0.3-3.3,0.7-4.9l-3.5,0.6
				c-0.4,1.5-0.6,3-0.6,4.6l0,0c0,5.1,2.5,7.3,6.6,7.3c4.3,0,6.9-2.5,6.9-7.8V1.2H117.4z"/>
			<path fill="#FFFFFF" d="M173.5,7.2v9.4h-15.9c-0.3-5.7-3.3-8.6-8.5-10l-0.8,2.8c4,1,5.9,3.4,6,7.1h-7.6v2.7h30.2v-12
				C176.9,7.2,173.5,7.2,173.5,7.2z"/>
			<rect x="139.5" y="1.2" fill="#FFFFFF" width="3.4" height="18"/>
			<rect x="94.3" y="1.2" fill="#FFFFFF" width="3.4" height="18"/>
			<polygon fill="#FFFFFF" points="86.6,1.2 86.6,16.6 78.7,16.6 78.7,19.3 90,19.3 90,1.3 86.6,1.3 		"/>
			<path fill="#FFFFFF" d="M71.6,7.2v9.4H60.7V13c0-3.7-1.8-6.1-5.9-6.1c-4.3,0-6.5,3-6.5,6.6c0,2.3-0.7,3.1-1.9,3.1H18.8V1.2h-3.4
				v18h30.8c1.4,0.1,2.8-0.7,3.4-2c0.8,1.3,2.2,2,5.3,2H75v-12C75,7.2,71.6,7.2,71.6,7.2z M57.4,16.5h-2.2c-2.6,0-3.6-1.1-3.6-3.4
				c0-1.1,0.3-2,0.8-2.7s1.3-1,2.2-1c1.9,0,2.8,1.1,2.8,3.8V16.5z"/>
			<path fill="#FFFFFF" d="M9.5,16.6c-2.2,0-2.9-0.7-2.9-1.7c0-0.9,0.7-1.5,2-1.5c0.7,0,1.4,0.1,2.1,0.2l0.4-2.7
				c-0.8-0.1-1.5-0.2-2.3-0.2c-4,0-5.5,2.1-5.5,4.3c-0.2,0.7,0.2,1.3,0.8,1.7c-0.8-0.1-1.6-0.2-2.3-0.2v2.6h10v-2.6H9.5V16.6z"/>
			<polygon fill="#FFFFFF" points="81,1 77.6,1.5 81.3,14.6 84.7,14.6 		"/>
			<path fill="#FFFFFF" d="M176.9,1.9c-0.9,0-1.7,0.7-1.7,1.6l0,0c0,0.9,0.7,1.7,1.7,1.7c0.9,0,1.7-0.7,1.7-1.7
				C178.5,2.6,177.8,1.9,176.9,1.9z"/>
			<path fill="#FFFFFF" d="M172.6,1.8c-0.9,0-1.7,0.7-1.7,1.7c0,0.5,0.2,0.9,0.5,1.2s0.7,0.5,1.2,0.5c0.9,0,1.7-0.7,1.7-1.7
				C174.3,2.6,173.5,1.9,172.6,1.8z"/>
			<circle fill="#FFFFFF" cx="73.3" cy="3.3" r="1.8"/>
		</g>
	</g>
	<animateTransform xlink:href="#alinma_symbol" attributeName="transform" type="translate" from="-95 0" to="0 0" dur="0.3s" begin="fill_alinma_symbol.end + 0.25s" fill="freeze" id="move_alinma_symbol"/>

	<animateTransform xlink:href="#alinma_logo_text" attributeName="transform" type="translate" from="-100 0" to="0 0" dur="0.3s" begin="fill_alinma_symbol.end + 0.25s" fill="freeze" id="move_alinma_logo_text"/>
	<animate xlink:href="#alinma_logo_text" attributeName="opacity" from="0" to="1" dur="0.3s" begin="fill_alinma_symbol.end + 0.25s" fill="freeze"/>
</svg>
