<svg xmlns="http://www.w3.org/2000/svg" width="16" height="16.306" viewBox="0 0 16 16.306">
  <path id="account-number" d="M8,15.972A4.537,4.537,0,0,1,3.471,11.5a3.815,3.815,0,0,1,.076-.8H1.322A1.324,1.324,0,0,1,0,9.359V1.338A1.338,1.338,0,0,1,.387.388,1.311,1.311,0,0,1,1.322,0H14.678a1.311,1.311,0,0,1,.935.388,1.329,1.329,0,0,1,.387.95V9.359a1.31,1.31,0,0,1-.387.949,1.324,1.324,0,0,1-.931.388H12.457a4.411,4.411,0,0,1,.08.8A4.539,4.539,0,0,1,8,15.972ZM8,7.486A4.011,4.011,0,1,0,12,11.5,4.011,4.011,0,0,0,8,7.486Zm-.07-.535h.094a4.49,4.49,0,0,1,4.319,3.208h2.336a.775.775,0,0,0,.554-.231.79.79,0,0,0,.23-.571V1.337a.794.794,0,0,0-.229-.572.783.783,0,0,0-.555-.23H1.318a.783.783,0,0,0-.555.23.8.8,0,0,0-.229.572v8.02a.787.787,0,0,0,.784.8H3.68a3.743,3.743,0,0,1,.48-1.066H1.3l.271-3.155a.817.817,0,0,1,.534-.7l1.495-.5L4.534,6.6l.934-1.871L6.96,5.24a.815.815,0,0,1,.533.7l.08,1.043a2.723,2.723,0,0,1,.357-.032ZM3.33,5.405l-1.049.342a.3.3,0,0,0-.186.241L1.886,8.556v.027H4.525A4.308,4.308,0,0,1,7.04,7.059L6.96,5.99a.285.285,0,0,0-.187-.24l-1.04-.344-1.2,2.407Zm7.6,8.231H5.067V13.1h.266v-.534H5.6V10.695H5.067v-.534L8,8.557l2.934,1.6V10.7H10.4v1.872h.266V13.1h.267v.532Zm-1.6-2.941v1.873h.534V10.695Zm-1.067,0v1.873H8.8V10.695Zm-1.066,0v1.873h.534V10.695Zm-1.065,0v1.873h.533V10.695ZM14.4,5.616H8.266V5.08H14.4v.534Zm-9.867-.8H4.522a2.575,2.575,0,1,1,.012,0ZM4.518,1.6a1.34,1.34,0,1,0,.016,0ZM13.6,3.744H8.266V3.208H13.6v.534Zm.8-1.6H8.266V1.6H14.4v.534Z" transform="translate(0 0.334)" fill="#fff"/>
</svg>
