<svg xmlns="http://www.w3.org/2000/svg" width="15.816" height="16" viewBox="0 0 15.816 16">
  <path id="account-type" d="M15.48,16H.321a.321.321,0,1,1,0-.642H15.48a.321.321,0,1,1,0,.642Zm-1.346-1.653H12.679a.321.321,0,0,1-.32-.321V6.531a.321.321,0,0,1,.32-.321h1.455a.321.321,0,0,1,.32.321v7.495a.321.321,0,0,1-.32.321Zm-1.14-7.49V13.7h.812V6.857ZM10.5,14.347H9.046a.314.314,0,0,1-.226-.094.319.319,0,0,1-.094-.227V6.531a.32.32,0,0,1,.32-.321H10.5a.318.318,0,0,1,.32.321v7.495a.318.318,0,0,1-.093.227.314.314,0,0,1-.227.094ZM9.367,6.857V13.7h.812V6.857Zm-2.413,7.49H5.5a.321.321,0,0,1-.32-.321V6.531A.321.321,0,0,1,5.5,6.21H6.954a.321.321,0,0,1,.32.321v7.495a.321.321,0,0,1-.32.321Zm-1.13-7.49V13.7h.812V6.857Zm-2.471,7.49H1.9a.318.318,0,0,1-.226-.094.323.323,0,0,1-.094-.227v-7.5a.322.322,0,0,1,.1-.231A.315.315,0,0,1,1.9,6.21H3.35a.315.315,0,0,1,.23.09.319.319,0,0,1,.1.226v7.495a.321.321,0,0,1-.321.321Zm-1.13-7.49V13.7h.812V6.857Zm13.26-1.8H.321a.32.32,0,0,1-.16-.6L7.751.044a.315.315,0,0,1,.322,0l7.539,4.392a.321.321,0,0,1-.113.618h-.015ZM7.909.693l-6.4,3.721H14.3Zm0,3.293H7.9a1.184,1.184,0,1,1,.006,0Zm0-1.728a.54.54,0,0,0-.382.157.555.555,0,0,0-.16.386h.005a.541.541,0,1,0,.541-.543Z" transform="translate(0.004)" fill="#fff"/>
</svg>
