<svg xmlns="http://www.w3.org/2000/svg" width="13.912" height="16" viewBox="0 0 13.912 16">
  <path id="blocked-amount" d="M9.025,16a4.894,4.894,0,0,1-3.048-1.071l-.042-.039-.071-.016H5.61c-2.72,0-5.61-.841-5.61-2.4V2.4C0,.841,2.89,0,5.61,0s5.611.841,5.611,2.4V6.73a4.9,4.9,0,0,1-.106,8.8,4.782,4.782,0,0,1-2.09.47ZM9.013,6.942A4.126,4.126,0,0,0,6.1,8.158a4.249,4.249,0,0,0-.807,1.151,4.48,4.48,0,0,0-.246.642A4.145,4.145,0,0,0,4.88,11.1a4.022,4.022,0,0,0,.032.489A4.111,4.111,0,0,0,6,13.941l.034.039.005.005.01.015.046.053A4.16,4.16,0,1,0,11.056,7.47a4.1,4.1,0,0,0-1.4-.478,3.9,3.9,0,0,0-.633-.052h-.01ZM.706,11.194v1.287c0,.729,1.852,1.6,4.508,1.681A4.811,4.811,0,0,1,4.3,12.32,7.578,7.578,0,0,1,.706,11.194Zm0-2.492V9.989a.522.522,0,0,0,.015.1.758.758,0,0,0,.2.354,2.137,2.137,0,0,0,.465.354,7.44,7.44,0,0,0,2.788.8c-.017-.188-.025-.348-.025-.488a5.08,5.08,0,0,1,.173-1.278A7.561,7.561,0,0,1,.706,8.7Zm0-2.5V7.493a.51.51,0,0,0,.015.1.767.767,0,0,0,.2.355,2.172,2.172,0,0,0,.465.354,7.8,7.8,0,0,0,3.177.834A4.844,4.844,0,0,1,5.574,7.642c.08-.081.165-.156.238-.218L5.844,7.4H5.609c-.119.007-.257.01-.433.01a8.947,8.947,0,0,1-4.468-1.2Zm0-2.6V5a.522.522,0,0,0,.015.1.768.768,0,0,0,.2.354,2.08,2.08,0,0,0,.465.355A8.966,8.966,0,0,0,5.264,6.7c.115,0,.231,0,.345-.006a12.46,12.46,0,0,0,1.5-.093A4.839,4.839,0,0,1,8.9,6.215a4.934,4.934,0,0,0,.939-.405,2.048,2.048,0,0,0,.465-.355.751.751,0,0,0,.2-.354.523.523,0,0,0,.015-.1V3.6A8.92,8.92,0,0,1,6.045,4.8c-.18,0-.318,0-.434-.01s-.258.01-.433.01A8.941,8.941,0,0,1,.71,3.6Zm4.905.481h.275a9.422,9.422,0,0,0,3.74-.772,2.76,2.76,0,0,0,.55-.354,1.047,1.047,0,0,0,.282-.355A.539.539,0,0,0,10.51,2.4c0-.8-2.1-1.688-4.9-1.688S.71,1.6.706,2.4a.531.531,0,0,0,.052.211,1.065,1.065,0,0,0,.282.354,2.522,2.522,0,0,0,.555.352,9.412,9.412,0,0,0,3.739.772l.281-.006Zm4.48,9.52h-.006l-2.118,0a.684.684,0,0,1-.67-.671l-.181-1.894a.675.675,0,0,1,.669-.7h.152V9.714a1.092,1.092,0,0,1,.957-1.083,1.324,1.324,0,0,1,.133-.008,1.086,1.086,0,0,1,1.056.829,1,1,0,0,1,.035.262v.627h.154a.671.671,0,0,1,.669.672l-.183,1.943a.669.669,0,0,1-.663.644ZM7.785,10.85a.158.158,0,0,0-.157.157l.146,1.525.036.364a.162.162,0,0,0,.04.127.167.167,0,0,0,.119.058h2.123a.159.159,0,0,0,.158-.158l.185-1.943a.158.158,0,0,0-.155-.135ZM9.027,9.159a.581.581,0,0,0-.58.555v.627h.968l.191-.254V9.714a.579.579,0,0,0-.579-.555Zm.005,3.555a.256.256,0,0,1-.255-.256v-.492a.255.255,0,1,1,.51,0v.492a.256.256,0,0,1-.255.256Z" fill="#6b45bc"/>
</svg>
