<svg xmlns="http://www.w3.org/2000/svg" width="27.56" height="24" viewBox="0 0 27.56 24">
  <path id="buying-power" d="M7.923,24a2.26,2.26,0,1,1,2.252-2.262A2.26,2.26,0,0,1,7.923,24Zm0-3.4A1.141,1.141,0,0,0,6.785,21.74a1.154,1.154,0,0,0,.333.808,1.141,1.141,0,1,0,.8-1.95ZM21.266,24a2.264,2.264,0,0,1-.861-4.352,2.193,2.193,0,0,1,.861-.172,2.262,2.262,0,0,1,0,4.524Zm0-3.4a1.141,1.141,0,1,0,.8.334,1.141,1.141,0,0,0-.8-.334ZM23.6,18.073H6.973a1.378,1.378,0,0,1-1.378-1.39,1.408,1.408,0,0,1,.026-.264.131.131,0,0,1,.012-.052l.612-1.961L3.858,3.949a.463.463,0,0,1-.01-.119.517.517,0,0,1,.01-.114V3.7L4.4,1.368a.438.438,0,0,0-.389-.246H.561a.562.562,0,0,1-.4-.949A.551.551,0,0,1,.554,0H4A1.551,1.551,0,0,1,5.51,1.23a.572.572,0,0,1,.012.121.439.439,0,0,1-.012.122L5.1,3.265H26.078l.393-1.447A.56.56,0,0,1,27,1.433a.6.6,0,0,1,.148.021.563.563,0,0,1,.4.66L24.859,12a1.539,1.539,0,0,1-1.471,1.18L7.245,14.943l-.529,1.713a.115.115,0,0,0,0,.033.252.252,0,0,0,.076.186.258.258,0,0,0,.186.076H23.6a.561.561,0,1,1,0,1.122ZM5.106,4.39l2.148,9.424,16.04-1.754h.06a.429.429,0,0,0,.42-.336l2-7.334Z" transform="translate(-0.004)" fill="#fff"/>
</svg>
