<svg xmlns="http://www.w3.org/2000/svg" width="15.621" height="16" viewBox="0 0 15.621 16">
  <path id="cash-balance" d="M10.49,16C8,16,5.361,15.232,5.361,13.808v-.193H5.128C2.642,13.615,0,12.847,0,11.424V2.191C0,.768,2.642,0,5.128,0s5.133.768,5.133,2.191V6.949h.228c2.087,0,3.939.5,4.719,1.285a1.267,1.267,0,0,1,.413.906v4.667C15.624,15.232,12.979,16,10.49,16ZM6.005,12.628V13.8a.651.651,0,0,0,.226.448,6.75,6.75,0,0,0,4.26,1.1c2.568,0,4.487-.816,4.487-1.545V12.628a8.141,8.141,0,0,1-4.087,1.1c-.151,0-.283,0-.4-.01h-.059a10.939,10.939,0,0,1-2.823-.365c-.251-.071-.457-.133-.631-.2a5.041,5.041,0,0,1-.551-.253,3.394,3.394,0,0,1-.421-.271ZM6,10.239v1.28a.315.315,0,0,0,.013.089.7.7,0,0,0,.179.324,2.016,2.016,0,0,0,.425.323,4.754,4.754,0,0,0,1,.423c.217.067.427.119.624.161s.415.086.619.114a11.067,11.067,0,0,0,1.6.114h.021c.1,0,.213.006.32.006a8.205,8.205,0,0,0,3.555-.815,1.893,1.893,0,0,0,.423-.322.7.7,0,0,0,.18-.325.369.369,0,0,0,.015-.089l-.009-1.289a8.139,8.139,0,0,1-4.086,1.1c-.143,0-.273,0-.4-.01h-.412a1.291,1.291,0,0,1-.139-.005c-.108,0-.217-.011-.3-.017H9.611a10.7,10.7,0,0,1-1.793-.273c-.229-.059-.44-.121-.644-.192a5.63,5.63,0,0,1-.587-.237A3.467,3.467,0,0,1,6,10.239ZM.641,10.25v1.179c0,.729,1.919,1.545,4.487,1.545h.233V11.339H5.133q-.2.01-.4.01a8.16,8.16,0,0,1-4.092-1.1Zm0-2.281V9.145a.362.362,0,0,0,.015.089.7.7,0,0,0,.179.325,1.9,1.9,0,0,0,.426.326,8.237,8.237,0,0,0,3.554.813c.1,0,.211,0,.315-.006h.233V9.145a.2.2,0,0,1,0-.036V9.1a.189.189,0,0,0,.005-.042H5.133c-.133.007-.263.01-.4.01a8.184,8.184,0,0,1-4.091-1.1Zm9.709-.377h-.082c-.091,0-.539.021-.647.029l-.114.009c-.238.019-.48.048-.741.089a6.785,6.785,0,0,0-1.9.547,2.329,2.329,0,0,0-.61.4.8.8,0,0,0-.228.343.337.337,0,0,0,0,.212.607.607,0,0,0,.033.1.837.837,0,0,0,.151.228,1.446,1.446,0,0,0,.107.1,2.4,2.4,0,0,0,.321.228c.067.037.118.067.183.1a5.507,5.507,0,0,0,1,.371c.2.055.4.1.622.144.187.037.389.067.6.1.175.024.357.043.57.059.046,0,.093.006.142.008H9.8a.769.769,0,0,1,.145.009c.106.01.216.01.323.01h.486a8.592,8.592,0,0,0,3.42-.707,2.483,2.483,0,0,0,.5-.324.973.973,0,0,0,.261-.315h0a.481.481,0,0,0,.054-.2c0-.729-1.919-1.545-4.487-1.545h-.148Zm-9.7-1.9V6.867a.455.455,0,0,0,.015.089.683.683,0,0,0,.179.323,1.9,1.9,0,0,0,.427.321,8.181,8.181,0,0,0,3.549.815c.106,0,.213,0,.319-.006.142,0,.3,0,.5-.013a2.9,2.9,0,0,1,1.147-.8,6.8,6.8,0,0,1,.961-.323,10.558,10.558,0,0,1,1.859-.3.125.125,0,0,0,0-.028.429.429,0,0,0,.015-.089V5.687a8.147,8.147,0,0,1-4.087,1.1c-.148,0-.284,0-.4-.01h-.01c-.143.007-.275.01-.4.01a8.155,8.155,0,0,1-4.078-1.1ZM.65,3.3V4.584a.646.646,0,0,0,.015.089A.7.7,0,0,0,.839,5a1.955,1.955,0,0,0,.426.324,9.586,9.586,0,0,0,3.868.808A9.587,9.587,0,0,0,9,5.319,1.889,1.889,0,0,0,9.425,5,.684.684,0,0,0,9.6,4.673a.429.429,0,0,0,.015-.089V3.3A8.173,8.173,0,0,1,5.533,4.4q-.2,0-.4-.01H5.124c-.124.01-.261.01-.395.01A8.179,8.179,0,0,1,.643,3.3ZM5.125.649C2.557.649.639,1.467.639,2.192a.47.47,0,0,0,.048.195.951.951,0,0,0,.258.325,2.644,2.644,0,0,0,.5.324,9.933,9.933,0,0,0,3.679.7,9.933,9.933,0,0,0,3.679-.7,2.643,2.643,0,0,0,.5-.324.951.951,0,0,0,.258-.325.47.47,0,0,0,.048-.195h0a.667.667,0,0,0-.228-.448A6.758,6.758,0,0,0,5.125.649Z" fill="#fff"/>
</svg>
