<svg xmlns="http://www.w3.org/2000/svg" width="19" height="19" viewBox="0 0 19 19">
    <g fill="none" fill-rule="evenodd">
        <g fill="#FFF" fill-rule="nonzero">
            <g>
                <g>
                    <path d="M12.446 14.558h-7.39c-.583 0-1.056-.473-1.056-1.056 0-.583.473-1.056 1.056-1.056h7.39v-7.39c0-.583.473-1.056 1.057-1.056.583 0 1.057.473 1.057 1.057v7.389h7.384c.583 0 1.056.473 1.056 1.056 0 .583-.473 1.056-1.056 1.056H14.56v7.388c0 .583-.474 1.056-1.057 1.056-.584 0-1.057-.473-1.057-1.056v-7.388z" transform="translate(-15 -489) translate(5 472) translate(6 13) rotate(45 13.5 13.501)"/>
                </g>
            </g>
        </g>
    </g>
</svg>
