<svg id="Contact_Us_-_dark" data-name="Contact Us - dark" xmlns="http://www.w3.org/2000/svg" width="23" height="22" viewBox="0 0 23 22">
  <path id="Stroke_382" data-name="Stroke 382" d="M4,15H2a2,2,0,0,1-2-2V2A2,2,0,0,1,2,0H20a2,2,0,0,1,2,2V13a2,2,0,0,1-2,2H18" transform="translate(0.5 0.5)" fill="none" stroke="#fff" stroke-linecap="round" stroke-linejoin="round" stroke-miterlimit="10" stroke-width="1"/>
  <path id="Stroke_384" data-name="Stroke 384" d="M0,0,7.77,5.611a2.083,2.083,0,0,0,2.46,0L18,0" transform="translate(2.5 2.5)" fill="none" stroke="#fff" stroke-linecap="round" stroke-linejoin="round" stroke-miterlimit="10" stroke-width="1"/>
  <path id="Stroke_386" data-name="Stroke 386" d="M0,5,5,0" transform="translate(2.5 8.5)" fill="none" stroke="#fff" stroke-linecap="round" stroke-linejoin="round" stroke-miterlimit="10" stroke-width="1"/>
  <path id="Stroke_388" data-name="Stroke 388" d="M5,5,0,0" transform="translate(15.5 8.5)" fill="none" stroke="#fff" stroke-linecap="round" stroke-linejoin="round" stroke-miterlimit="10" stroke-width="1"/>
  <path id="Stroke_390" data-name="Stroke 390" d="M8.477,8.594A5,5,0,1,1,10,5" transform="translate(6.5 11.5)" fill="none" stroke="#fff" stroke-linecap="round" stroke-linejoin="round" stroke-miterlimit="10" stroke-width="1"/>
  <path id="Stroke_392" data-name="Stroke 392" d="M0,2A2,2,0,1,1,2,4,2,2,0,0,1,0,2Z" transform="translate(9.5 14.5)" fill="none" stroke="#fff" stroke-linecap="round" stroke-linejoin="round" stroke-miterlimit="10" stroke-width="1"/>
  <path id="Stroke_394" data-name="Stroke 394" d="M3,0c0,.828-.094,2-1.5,2C.25,2,0,.828,0,0" transform="translate(13.5 16.5)" fill="none" stroke="#fff" stroke-linecap="round" stroke-linejoin="round" stroke-miterlimit="10" stroke-width="1"/>
</svg>
