<svg xmlns="http://www.w3.org/2000/svg" width="24" height="24" viewBox="0 0 24 24">
    <path fill="#FFF" fill-rule="evenodd" d="M16.176 4.302l3.521 3.522c.202.201.313.47.313.754 0 .285-.111.553-.313.755L10.14 18.89l-.056.045-.063.033c-.017.007-.034.012-.052.017l-.013.002-.004.001-5.533 1.006-.063.006c-.094 0-.184-.037-.252-.104-.082-.083-.12-.2-.098-.315l1.006-5.533.008-.036.007-.022-.015.058c.013-.071.047-.137.098-.188l9.557-9.558c.403-.403 1.106-.403 1.51 0zM5.048 17.821l-.25 1.382 1.379-.252-1.129-1.13zm.542-2.979l-.387 2.128 1.826 1.826 2.128-.387-3.567-3.567zm12.849-7.271l-9.556 9.558 1.006 1.006 9.305-9.306c.14-.138.14-.364 0-.502l-.755-.756zm-1.508-1.508L7.374 15.62l1.006 1.006 9.557-9.557-1.006-1.006zm-1.76-1.257L5.864 14.11l1.006 1.006 9.557-9.557-.754-.754c-.135-.135-.37-.135-.504 0z"/>
</svg>
