<svg xmlns="http://www.w3.org/2000/svg" width="130" height="70" viewBox="0 0 130 70">
    <g fill="none" fill-rule="evenodd">
        <ellipse cx="65" cy="60.5" fill="#E6EFF0" rx="65" ry="9.5"/>
        <path fill="#65979A" d="M29 4.91C29 2.197 31.198 0 33.91 0h62.18C98.803 0 101 2.198 101 4.91v6.545c0 2.71-2.198 4.909-4.91 4.909H33.91c-2.712 0-4.91-2.198-4.91-4.91V4.91zm9.665 50.77l-2.812-32.486c-.165-1.912 1.342-3.558 3.26-3.558h51.773c1.92 0 3.426 1.644 3.26 3.555l-2.81 32.489c-.319 3.675-3.51 6.502-7.339 6.502H46.003c-3.83 0-7.02-2.827-7.338-6.502zm20.947-24.11c-.64-.639-1.675-.639-2.315 0-.639.64-.639 1.675 0 2.315l5.389 5.388-5.389 5.388c-.639.64-.639 1.675 0 2.314.64.64 1.676.64 2.315 0L65 41.587l5.388 5.388c.64.64 1.676.64 2.315 0 .639-.639.639-1.675 0-2.314l-5.389-5.388 5.389-5.388c.639-.64.639-1.676 0-2.315-.64-.639-1.676-.639-2.315 0L65 36.959l-5.388-5.389z"/>
    </g>
</svg>
