<svg xmlns="http://www.w3.org/2000/svg" width="130" height="71" viewBox="0 0 130 71">
    <g fill="none" fill-rule="evenodd">
        <ellipse cx="65" cy="61.5" fill="#f0e9ff" rx="65" ry="9.5"/>
        <path fill="#6b45bc" d="M89.778 56.889c0 3.927-3.184 7.111-7.111 7.111H47.11C43.184 64 40 60.816 40 56.889V7.11C40 3.184 43.184 0 47.111 0H64.89v16H50.667c-.982 0-1.778.796-1.778 1.778s.796 1.778 1.778 1.778h14.222c.075 0 .148-.005.22-.014.785 3.074 3.573 5.347 6.891 5.347h17.778v32zM68.444 16V1.717c0-.634.766-.951 1.214-.503l18.906 18.905c.448.448.13 1.214-.503 1.214H73.778c-2.946 0-5.334-2.387-5.334-5.333zM50.667 26.667c-.982 0-1.778.796-1.778 1.777 0 .982.796 1.778 1.778 1.778H79.11c.982 0 1.778-.796 1.778-1.778 0-.981-.796-1.777-1.778-1.777H50.667zm0 10.666c-.982 0-1.778.796-1.778 1.778s.796 1.778 1.778 1.778H79.11c.982 0 1.778-.796 1.778-1.778s-.796-1.778-1.778-1.778H50.667zm0 10.667c-.982 0-1.778.796-1.778 1.778 0 .981.796 1.778 1.778 1.778h14.222c.982 0 1.778-.797 1.778-1.778 0-.982-.796-1.778-1.778-1.778H50.667z"/>
    </g>
</svg>
