<svg xmlns="http://www.w3.org/2000/svg" width="130" height="69" viewBox="0 0 130 69">
    <g fill="none" fill-rule="evenodd">
        <ellipse cx="65" cy="59.5" fill="#ad93e3" rx="65" ry="9.5"/>
        <path fill="#6b45bc" d="M96.219 54.115l-16-16c-.483-.483-1.15-.782-1.886-.782-.738 0-1.378.323-1.853.814l-.813.749L71.17 34.4c2.808-3.61 4.496-8.136 4.496-13.067C75.667 9.552 66.115 0 54.333 0 42.552 0 33 9.552 33 21.333c0 11.782 9.552 21.334 21.333 21.334 4.931 0 9.456-1.688 13.067-4.496l4.496 4.496-.781.781s-.782.448-.782 1.885c0 1.456.782 1.886.782 1.886l16 16C87.597 63.7 88.264 64 89 64c1.456 0 1.885-.781 1.885-.781l5.334-5.334S97 57.456 97 56c0-.736-.299-1.403-.781-1.885zM54.333 37.333c-8.834 0-16-7.165-16-16 0-8.834 7.166-16 16-16 8.835 0 16 7.166 16 16 0 8.835-7.165 16-16 16zM89 57.563l-12.23-12.23 1.563-1.562L90.563 56 89 57.563zM54.333 10.667c-5.89 0-10.666 4.776-10.666 10.666 0 1.475 1.192 2.667 2.666 2.667C47.808 24 49 22.808 49 21.333 49 18.39 51.39 16 54.333 16 55.808 16 57 14.808 57 13.333c0-1.474-1.192-2.666-2.667-2.666z"/>
    </g>
</svg>
