<?xml version="1.0" encoding="utf-8"?>
<!-- Generator: Adobe Illustrator 25.3.1, SVG Export Plug-In . SVG Version: 6.00 Build 0)  -->
<svg version="1.0" id="Layer_1" xmlns="http://www.w3.org/2000/svg" xmlns:xlink="http://www.w3.org/1999/xlink" x="0px" y="0px"
	 viewBox="0 0 150 75" enable-background="new 0 0 150 75" xml:space="preserve">
<g id="Layer_1-2" transform="translate(-679.13 -535.451)">
	<path id="Path_1632" fill="#CCDDDD" d="M812.88,591.6h-3.8c-2.69-0.05-4.83-2.29-4.78-5c0.05-2.63,2.16-4.74,4.78-4.8h13.03
		c2.69,0,4.88-2.19,4.88-4.9c0-2.7-2.18-4.9-4.88-4.9l0,0h-15.74c2.69,0,4.88-2.19,4.88-4.9c0-2.7-2.18-4.9-4.88-4.9l0,0h-32.51
		c2.69,0,4.88-2.19,4.88-4.9c0-2.7-2.18-4.9-4.88-4.9H721.3c-2.69,0-4.88,2.19-4.88,4.9c0,2.7,2.18,4.9,4.88,4.9h-27.09
		c-2.69,0-4.88,2.19-4.88,4.9c0,2.7,2.18,4.9,4.88,4.9h18.42v0.12c2.63,0.61,4.27,3.24,3.66,5.88c-0.42,1.83-1.84,3.26-3.66,3.68
		v0.12h-28.72c-2.69,0.05-4.83,2.29-4.78,5c0.05,2.63,2.16,4.74,4.78,4.8H711c-2.69,0-4.88,2.19-4.88,4.9c0,2.7,2.18,4.9,4.88,4.9
		h17.75l0.69,5.07c0.23,1.8,1.87,3.08,3.66,2.85h0h0.02l40.5-5.47c1.32-0.18,2.41-1.14,2.74-2.45h36.52c2.69,0,4.88-2.19,4.88-4.9
		C817.75,593.8,815.57,591.6,812.88,591.6L812.88,591.6L812.88,591.6z"/>
	<ellipse id="Ellipse_2" fill="#CCDDDD" cx="824.25" cy="596.5" rx="4.88" ry="4.9"/>
	<path id="Path_1633" fill="#99B9BC" d="M722.8,541.49c-1.66,0-3.01-1.35-3.01-3.02s1.35-3.02,3.01-3.02c1.66,0,3.01,1.35,3.01,3.02
		l0,0C725.81,540.14,724.46,541.49,722.8,541.49z M722.8,536.27c-1.21,0-2.19,0.99-2.19,2.2s0.98,2.2,2.19,2.2
		c1.21,0,2.19-0.99,2.19-2.2l0,0C725,537.25,724.02,536.27,722.8,536.27z"/>
	<ellipse id="Ellipse_3" fill="#99B9BC" cx="791.91" cy="543.59" rx="2.6" ry="2.61"/>
	<path id="Path_1634" fill="#99B9BC" d="M703.54,548.53c-0.11,0-0.21-0.04-0.28-0.11c-0.16-0.16-0.16-0.41,0-0.57l3.4-3.41
		c0.17-0.15,0.42-0.13,0.57,0.04c0.13,0.15,0.13,0.37,0,0.53l-3.4,3.41C703.74,548.49,703.64,548.53,703.54,548.53z"/>
	<path id="Path_1635" fill="#99B9BC" d="M706.95,548.53c-0.11,0-0.21-0.04-0.28-0.11l-3.4-3.41c-0.16-0.15-0.16-0.41-0.01-0.56
		c0,0,0,0,0,0l0.01-0.01c0.16-0.16,0.41-0.16,0.57,0l3.4,3.41c0.16,0.16,0.16,0.41,0,0.57
		C707.16,548.49,707.06,548.53,706.95,548.53z"/>
	<path id="Path_1636" fill="#99B9BC" d="M803.79,554.79c-0.11,0-0.21-0.04-0.28-0.11c-0.16-0.16-0.16-0.41,0-0.57l3.4-3.41
		c0.17-0.15,0.42-0.13,0.57,0.04c0.13,0.15,0.13,0.37,0,0.53l-3.4,3.41C804,554.75,803.9,554.79,803.79,554.79z"/>
	<path id="Path_1637" fill="#99B9BC" d="M807.21,554.79c-0.11,0-0.21-0.04-0.28-0.11l-3.4-3.41c-0.16-0.15-0.16-0.41-0.01-0.56
		c0,0,0,0,0,0l0.01-0.01c0.16-0.16,0.41-0.16,0.57,0l3.4,3.41c0.16,0.16,0.16,0.41,0,0.57
		C807.41,554.75,807.31,554.79,807.21,554.79z"/>
	<path id="Path_1638" fill="#FFFFFF" d="M782.25,595.17h-40.87c-1.81,0-3.27-1.47-3.27-3.28v-49.22c0-1.81,1.46-3.28,3.26-3.29
		c0,0,0,0,0,0h24.53l19.62,19.7v32.83C785.51,593.71,784.05,595.17,782.25,595.17z"/>
	<path id="Path_1639" fill="#65979A" d="M786.32,558.27l-19.62-19.7c-0.21-0.21-0.5-0.34-0.8-0.34h-24.52c-2.43,0-4.4,1.98-4.4,4.42
		v8.72l-6.54,0.81l-4.87,0.65c-2.41,0.32-4.1,2.55-3.78,4.97l6.51,48.81c0.29,2.19,2.16,3.83,4.36,3.84c0.19,0,0.38-0.01,0.57-0.04
		l40.51-5.44c2.41-0.33,4.1-2.55,3.78-4.97l-0.49-3.67h5.19c2.43,0.01,4.41-1.97,4.42-4.41c0,0,0,0,0,0v-32.84
		C786.65,558.77,786.53,558.48,786.32,558.27z M767.06,542.12l15.75,15.82h-15.78L767.06,542.12z M775.32,600.29
		c0.16,1.17-0.66,2.25-1.83,2.41l0,0l-40.53,5.46c-1.16,0.14-2.22-0.68-2.38-1.84l-6.54-48.81c-0.07-0.56,0.08-1.13,0.42-1.58
		c0.34-0.45,0.85-0.75,1.41-0.82l4.85-0.65l6.23-0.79v38.24c0,2.44,1.97,4.42,4.4,4.42h33.42L775.32,600.29z M782.27,594.03h-40.89
		c-1.18,0-2.14-0.96-2.14-2.14v0v-49.23c0-1.18,0.96-2.14,2.14-2.14h0h23.39v18.56c0,0.63,0.51,1.14,1.13,1.14h18.49v31.7
		c-0.01,1.18-0.97,2.12-2.14,2.12L782.27,594.03z"/>
	<path id="Path_1640" fill="#65979A" d="M774.76,571.37h-23.57c-0.63-0.02-1.15,0.48-1.17,1.1c-0.02,0.63,0.47,1.15,1.1,1.17
		c0.02,0,0.05,0,0.07,0h23.57c0.63,0.02,1.15-0.48,1.17-1.1c0.02-0.63-0.47-1.15-1.1-1.17C774.8,571.36,774.78,571.36,774.76,571.37
		z"/>
	<path id="Path_1641" fill="#65979A" d="M773.47,580.95h-12.31c-0.63-0.02-1.15,0.48-1.17,1.1c-0.02,0.63,0.47,1.15,1.1,1.17
		c0.02,0,0.05,0,0.07,0l0,0c4.72,0,11.89-0.04,12.69,0H774c0.11,0,0.22-0.02,0.32-0.05c0.54-0.16,0.88-0.7,0.8-1.26
		C774.99,580.95,774.11,580.95,773.47,580.95z"/>
</g>
</svg>
