<svg xmlns="http://www.w3.org/2000/svg" width="16" height="16.016" viewBox="0 0 16 16.016">
    <path fill="#6b45bc" stroke="#6b45bc" stroke-miterlimit="10" d="M15 6.055a1.192 1.192 0 0 1-.412.63c-1.016.922-2.027 1.851-3.042 2.775a.193.193 0 0 0-.067.214c.311 1.416.617 2.833.928 4.249a.837.837 0 0 1-.294.907.75.75 0 0 1-.927.018Q9.391 13.731 7.6 12.611a.157.157 0 0 0-.2 0q-1.8 1.125-3.6 2.244a.777.777 0 0 1-1.2-.466.981.981 0 0 1-.008-.429q.455-2.138.929-4.273a.21.21 0 0 0-.07-.234Q1.875 8.024.307 6.587a.859.859 0 0 1 .07-1.371 1.28 1.28 0 0 1 .615-.147q1.441-.138 2.883-.269c.358-.034.716-.068 1.075-.1a.147.147 0 0 0 .145-.107Q5.918 2.572 6.747.554A.783.783 0 0 1 7.908.122a.9.9 0 0 1 .354.455l1.629 3.986a.2.2 0 0 0 .193.139c.775.068 1.549.145 2.324.218.592.056 1.184.115 1.776.166a.819.819 0 0 1 .8.685A.178.178 0 0 0 15 5.8z" transform="translate(.5 .505)"/>
</svg>
