<svg xmlns="http://www.w3.org/2000/svg" width="15.165" height="15.383" viewBox="0 0 15.165 15.383">
  <path id="filter-icon" d="M6.5,15.383a1.149,1.149,0,0,1-.569-.149.976.976,0,0,1-.512-.852V8.532a1.4,1.4,0,0,0-.369-.94L.369,2.408A1.383,1.383,0,0,1,.15.846,1.61,1.61,0,0,1,1.59,0H13.576a1.612,1.612,0,0,1,1.441.845A1.384,1.384,0,0,1,14.8,2.408L10.119,7.592a1.4,1.4,0,0,0-.369.94v4.85a.991.991,0,0,1-.6.895l-2.166,1A1.165,1.165,0,0,1,6.5,15.383ZM1.59,1a.514.514,0,0,0-.459.27.442.442,0,0,0,.069.5l4.68,5.183A2.365,2.365,0,0,1,6.5,8.532v5.85l2.167-1V8.532a2.365,2.365,0,0,1,.619-1.58l4.679-5.183a.441.441,0,0,0,.07-.5.515.515,0,0,0-.46-.27Z" transform="translate(-0.001 0)" fill="#fff"/>
</svg>
