<svg xmlns="http://www.w3.org/2000/svg" viewBox="0 0 169.53 172.05"><defs><style>.cls-1{fill:none;stroke:#f92c53;stroke-miterlimit:10;stroke-width:3px;}</style></defs><title>fingerprint</title><g id="Layer_2" data-name="Layer 2"><g id="Layer_1-2" data-name="Layer 1"><path class="cls-1" d="M10.75,49.19a83.89,83.89,0,0,0-7.57,55"/><path class="cls-1" d="M121.28,10.1a84.26,84.26,0,0,0-105.11,26"/><path class="cls-1" d="M167.73,72.14a84,84,0,0,0-34.18-52.3"/><path class="cls-1" d="M167.43,89.5a77.64,77.64,0,0,0,.11-18.45"/><path class="cls-1" d="M3.1,103.75q.27,2,.7,4"/><path class="cls-1" d="M63.86,167.27A94.69,94.69,0,0,0,85.63,85.87"/><path class="cls-1" d="M71.13,137.22a84.77,84.77,0,0,1-18.27,28.35"/><path class="cls-1" d="M75.5,169.13A105.14,105.14,0,0,0,95.8,83.37h0a10.59,10.59,0,1,0-20.76,4.19h.07A84,84,0,0,1,75,121.83"/><path class="cls-1" d="M64.62,96.87a73.76,73.76,0,0,1-22.77,63.78"/><path class="cls-1" d="M107.51,107.18a116.41,116.41,0,0,0-2.31-22.7h0a21.11,21.11,0,0,0-41.36-.13"/><path class="cls-1" d="M89.54,171.2a116,116,0,0,0,19.55-52.32"/><path class="cls-1" d="M88.57,56.62a31.66,31.66,0,0,0-33.48,37.8h.06a63.23,63.23,0,0,1-20.64,60.36"/><path class="cls-1" d="M101.28,170.51a126,126,0,0,0,14.87-88.93h0a31.57,31.57,0,0,0-15.62-21.39"/><path class="cls-1" d="M43,126.22A53,53,0,0,1,27.18,148"/><path class="cls-1" d="M126.25,128.65a136.58,136.58,0,0,0-.92-49.29h0A42.15,42.15,0,1,0,42.69,96h0a52.67,52.67,0,0,1,.75,16"/><path class="cls-1" d="M115.21,165.46a137,137,0,0,0,9.18-24.57"/><path class="cls-1" d="M129.89,56.52a52.5,52.5,0,0,1,9,20.59h0a146.8,146.8,0,0,1-6.76,81.73"/><path class="cls-1" d="M63.86,39.32a52.77,52.77,0,0,1,55.39,7.14"/><path class="cls-1" d="M19.84,138.11a42.18,42.18,0,0,0,15-41.25h0A52.67,52.67,0,0,1,53.22,45.52"/><path class="cls-1" d="M21.86,89.54a63.69,63.69,0,0,0,1.21,10h0A31.65,31.65,0,0,1,12.5,130"/><path class="cls-1" d="M149.19,82.41q-.61-4.09-1.43-8.18h0A63.21,63.21,0,0,0,23.51,75.91"/><path class="cls-1" d="M144.56,147.26a157,157,0,0,0,5-50.39"/><path class="cls-1" d="M96.19,13.16A73.78,73.78,0,0,0,14,100.82h0a21.1,21.1,0,0,1-5.23,18.55"/><path class="cls-1" d="M159.79,126a168.37,168.37,0,0,0-2.07-54.17h0a73.7,73.7,0,0,0-49.82-55.67"/></g></g></svg>