<svg xmlns="http://www.w3.org/2000/svg" viewBox="0 0 21.98 22.05"><defs><style>.cls-1{fill:#fff;}</style></defs><g id="Layer_2" data-name="Layer 2"><g id="Layer_1-2" data-name="Layer 1"><path class="cls-1" d="M21.11,0h.14A.86.86,0,0,1,22,1V7.65a.85.85,0,1,1-1.69,0V3.11A.08.08,0,0,0,20.22,3a.07.07,0,0,0-.09,0L9.89,13.31l0,0a.84.84,0,0,1-1.2,0,.85.85,0,0,1,0-1.2L18.93,1.85a.08.08,0,0,0,0-.1.09.09,0,0,0-.08-.06H14.34a.83.83,0,0,1-.83-.85A.84.84,0,0,1,14.36,0Zm-13,3.38,1.24,0a.85.85,0,0,1,.86.86.84.84,0,0,1-.86.83c-2.11,0-3.68,0-4.78.13a2.45,2.45,0,0,0-2,.69,2.43,2.43,0,0,0-.68,2,32.11,32.11,0,0,0-.13,3.46v2a41.06,41.06,0,0,0,.13,4.11,2.42,2.42,0,0,0,.69,2,2.39,2.39,0,0,0,2,.69,47.13,47.13,0,0,0,4.77.13,47.13,47.13,0,0,0,4.77-.13,2.42,2.42,0,0,0,2.7-2.71,44,44,0,0,0,.14-4.78v0a.81.81,0,0,1,.43-.72.82.82,0,0,1,.84,0,.85.85,0,0,1,.42.74,48.45,48.45,0,0,1-.15,5,4,4,0,0,1-4.19,4.2A45.46,45.46,0,0,1,9.31,22a45.58,45.58,0,0,1-5-.14,4,4,0,0,1-3-1.17,4,4,0,0,1-1.18-3,48.84,48.84,0,0,1-.15-5,48.72,48.72,0,0,1,.14-5,4.06,4.06,0,0,1,1.17-3,4,4,0,0,1,3-1.17,45.9,45.9,0,0,1,5-.14Z"/></g></g></svg>