<svg xmlns="http://www.w3.org/2000/svg" width="22" height="17.418" viewBox="0 0 22 17.418">
  <g id="Light" transform="translate(-1 -4)">
    <g id="_02_TadawulApp2_light" data-name="02_TadawulApp2_light" transform="translate(-44 -268)">
      <g id="hide-password" transform="translate(44 268)">
        <path id="password-hide" d="M20.574,4.134a.461.461,0,0,1,0,.651L18.5,6.857a12.648,12.648,0,0,1,4.475,5.706.464.464,0,0,1,0,.289A11.669,11.669,0,0,1,12,20.5a11.459,11.459,0,0,1-5.716-1.427l-2.21,2.211a.459.459,0,0,1-.648-.651l2.058-2.057a12.4,12.4,0,0,1-4.462-5.748.462.462,0,0,1,0-.28A11.562,11.562,0,0,1,12,4.918a11.375,11.375,0,0,1,5.7,1.44l2.224-2.223A.459.459,0,0,1,20.574,4.134ZM17.861,7.5,15.875,9.484A5.042,5.042,0,0,1,12,17.751a5,5,0,0,1-3.227-1.166L6.946,18.414A10.778,10.778,0,0,0,12,19.584a10.68,10.68,0,0,0,10.055-6.875A11.344,11.344,0,0,0,17.861,7.5ZM12,5.834A10.444,10.444,0,0,0,1.943,12.686a11.1,11.1,0,0,0,4.182,5.248l2-2A5.042,5.042,0,0,1,12,7.668a5,5,0,0,1,3.227,1.166l1.816-1.817A10.683,10.683,0,0,0,12,5.834Zm3.223,4.3-5.8,5.8a4.124,4.124,0,0,0,5.8-5.8ZM12,8.584a4.125,4.125,0,0,0-3.223,6.7l5.8-5.8A4.093,4.093,0,0,0,12,8.584Z" fill="#fff" fill-rule="evenodd"/>
      </g>
    </g>
  </g>
</svg>
