<svg xmlns="http://www.w3.org/2000/svg" width="24" height="24" viewBox="0 0 24 24">
    <path fill="#6b45bc" fill-rule="evenodd" d="M20.574 4.134c.18.179.18.472 0 .65L18.5 6.858c3.276 2.248 4.458 5.657 4.475 5.706.031.096.032.192.002.288-.025.074-2.559 7.65-10.978 7.65-2.334 0-4.215-.583-5.716-1.427l-2.21 2.21c-.09.088-.207.134-.324.134-.117 0-.235-.046-.324-.133-.18-.179-.18-.472 0-.651l2.058-2.057c-3.301-2.257-4.446-5.7-4.462-5.748-.03-.092-.03-.188 0-.28C1.044 12.476 3.51 4.918 12 4.918c2.322 0 4.2.589 5.702 1.44l2.224-2.224c.18-.179.469-.179.648 0zM17.86 7.498l-1.986 1.986c1.65 1.979 1.546 4.935-.31 6.791-.952.954-2.218 1.476-3.565 1.476-1.193 0-2.322-.41-3.227-1.166l-1.827 1.829c1.342.699 3.007 1.17 5.054 1.17 7.14 0 9.678-5.88 10.055-6.875-.256-.673-1.426-3.4-4.194-5.211zM12 5.834c-7.284 0-9.694 5.84-10.057 6.852.242.665 1.383 3.428 4.182 5.248l2-1.999c-1.65-1.979-1.546-4.935.31-6.791.952-.954 2.218-1.476 3.565-1.476 1.193 0 2.322.41 3.227 1.166l1.816-1.817C15.699 6.31 14.037 5.834 12 5.834zm3.223 4.302l-5.797 5.796c.729.584 1.627.902 2.574.902 1.102 0 2.138-.43 2.917-1.21 1.499-1.499 1.6-3.87.306-5.488zM12 8.584c-1.102 0-2.138.431-2.917 1.21-1.499 1.5-1.6 3.871-.306 5.489l5.796-5.797c-.728-.584-1.626-.902-2.573-.902z"/>
</svg>
