<?xml version="1.0" encoding="utf-8"?>
<!-- Generator: Adobe Illustrator 25.3.1, SVG Export Plug-In . SVG Version: 6.00 Build 0)  -->
<svg version="1.0" id="Layer_1" xmlns="http://www.w3.org/2000/svg" xmlns:xlink="http://www.w3.org/1999/xlink" x="0px" y="0px"
	 viewBox="0 0 70 55" enable-background="new 0 0 70 55" xml:space="preserve">
<g>
	<g id="Rectangle_7914">
		<path fill="#E6EFF0" d="M5,0h60c2.8,0,5,2.2,5,5v45c0,2.8-2.2,5-5,5H5c-2.8,0-5-2.2-5-5V5C0,2.2,2.2,0,5,0z"/>
		<path fill="none" stroke="#CDDCDD" d="M5,0.5h60c2.5,0,4.5,2,4.5,4.5v45c0,2.5-2,4.5-4.5,4.5H5c-2.5,0-4.5-2-4.5-4.5V5
			C0.5,2.5,2.5,0.5,5,0.5z"/>
	</g>
	<g id="Group_9908">
		<path id="Rectangle_7917" fill="#FFFEFF" d="M8,30h54c1.7,0,3,1.3,3,3v14c0,1.7-1.3,3-3,3H8c-1.7,0-3-1.3-3-3V33
			C5,31.3,6.3,30,8,30z"/>
		<path id="Rectangle_7918" fill="#E6EFF0" d="M13,35h29c1.7,0,3,1.3,3,3v4c0,1.7-1.3,3-3,3H13c-1.7,0-3-1.3-3-3v-4
			C10,36.3,11.3,35,13,35z"/>
		<path id="Rectangle_7919" fill="#E6EFF0" d="M53,35h4c1.7,0,3,1.3,3,3v4c0,1.7-1.3,3-3,3h-4c-1.7,0-3-1.3-3-3v-4
			C50,36.3,51.3,35,53,35z"/>
	</g>
	<g id="Group_9907">
		<path id="Rectangle_7915" fill="#FFFEFF" d="M8,5h54c1.7,0,3,1.3,3,3v14c0,1.7-1.3,3-3,3H8c-1.7,0-3-1.3-3-3V8C5,6.3,6.3,5,8,5z"
			/>
		<path id="Rectangle_7916" fill="#E6EFF0" d="M53,10h4c1.7,0,3,1.3,3,3v4c0,1.7-1.3,3-3,3h-4c-1.7,0-3-1.3-3-3v-4
			C50,11.3,51.3,10,53,10z"/>
		<path id="Rectangle_7920" fill="#E6EFF0" d="M13,10h29c1.7,0,3,1.3,3,3v4c0,1.7-1.3,3-3,3H13c-1.7,0-3-1.3-3-3v-4
			C10,11.3,11.3,10,13,10z"/>
	</g>
</g>
<g display="none">
	<g id="Rectangle_7914_1_" display="inline">
		<path d="M5,0h60c2.8,0,5,2.2,5,5v45c0,2.8-2.2,5-5,5H5c-2.8,0-5-2.2-5-5V5C0,2.2,2.2,0,5,0z"/>
		<path fill="none" stroke="#777777" d="M5,0.5h60c2.5,0,4.5,2,4.5,4.5v45c0,2.5-2,4.5-4.5,4.5H5c-2.5,0-4.5-2-4.5-4.5V5
			C0.5,2.5,2.5,0.5,5,0.5z"/>
	</g>
	<g id="Group_9908_1_" display="inline">
		<path id="Rectangle_7917_1_" fill="#444444" d="M8,30h54c1.7,0,3,1.3,3,3v14c0,1.7-1.3,3-3,3H8c-1.7,0-3-1.3-3-3V33
			C5,31.3,6.3,30,8,30z"/>
		<path id="Rectangle_7918_1_" fill="#777777" d="M13,35h29c1.7,0,3,1.3,3,3v4c0,1.7-1.3,3-3,3H13c-1.7,0-3-1.3-3-3v-4
			C10,36.3,11.3,35,13,35z"/>
		<path id="Rectangle_7919_1_" fill="#777777" d="M53,35h4c1.7,0,3,1.3,3,3v4c0,1.7-1.3,3-3,3h-4c-1.7,0-3-1.3-3-3v-4
			C50,36.3,51.3,35,53,35z"/>
	</g>
	<g id="Group_9907_1_" display="inline">
		<path id="Rectangle_7915_1_" fill="#444444" d="M8,5h54c1.7,0,3,1.3,3,3v14c0,1.7-1.3,3-3,3H8c-1.7,0-3-1.3-3-3V8C5,6.3,6.3,5,8,5
			z"/>
		<path id="Rectangle_7916_1_" fill="#777777" d="M53,10h4c1.7,0,3,1.3,3,3v4c0,1.7-1.3,3-3,3h-4c-1.7,0-3-1.3-3-3v-4
			C50,11.3,51.3,10,53,10z"/>
		<path id="Rectangle_7920_1_" fill="#777777" d="M13,10h29c1.7,0,3,1.3,3,3v4c0,1.7-1.3,3-3,3H13c-1.7,0-3-1.3-3-3v-4
			C10,11.3,11.3,10,13,10z"/>
	</g>
</g>
</svg>
