<svg id="Symbols" xmlns="http://www.w3.org/2000/svg" width="15.532" height="16" viewBox="0 0 15.532 16">
  <g id="Dark-_-portfolios-tabs-_-tab1-_-inactive" data-name="Dark-/-portfolios-tabs-/-tab1-/-inactive" transform="translate(-91)">
    <path id="local-portfolio-inactive" d="M91.707,16A.718.718,0,0,1,91,15.274V.383a.366.366,0,0,1,.171-.331.346.346,0,0,1,.364,0,.366.366,0,0,1,.171.331V15.274H106.2a.364.364,0,0,1,0,.726Zm11.308-1.453a.718.718,0,0,1-.707-.726V11.642a.718.718,0,0,1,.707-.726h.707a.718.718,0,0,1,.707.726v2.178a.718.718,0,0,1-.707.726Zm0-.726h.708V11.642h-.707Zm-3.181.726a.718.718,0,0,1-.707-.726V1.835a.718.718,0,0,1,.707-.726h.707a.718.718,0,0,1,.707.726V13.821a.718.718,0,0,1-.707.726Zm0-.726h.707V1.835h-.707Zm-3.18.726a.718.718,0,0,1-.707-.726V9.1a.718.718,0,0,1,.707-.726h.707a.718.718,0,0,1,.707.726v4.721a.718.718,0,0,1-.707.726Zm0-.726h.707V9.1h-.707Zm-3.181.726a.718.718,0,0,1-.707-.726V5.467a.718.718,0,0,1,.707-.726h.707a.717.717,0,0,1,.707.726v8.354a.718.718,0,0,1-.707.726Zm0-.726h.707V5.467h-.707Z" fill="#fff"/>
  </g>
</svg>
