<svg xmlns="http://www.w3.org/2000/svg" width="187" height="42" viewBox="0 0 187 42">
    <path fill="#FFF" stroke="#000" stroke-opacity="0" d="M144.801 41.594V0h41.775v41.594h-41.775zm15.595-34.446v30.46l10.237-3.433V3.93l-10.237 3.217zm-74.79 28.2c0-3.325 1.942-5.622 5.214-5.622.417-.003.834.023 1.248.079v-4.513h2.519V39.74h-2.36c.002-.55.042-1.1.12-1.644h-.04c-.573 1.185-1.797 1.916-3.114 1.86-2.398.002-3.587-1.799-3.587-4.61zm2.656-.276c0 1.841.535 2.791 1.686 2.791 1.328 0 2.12-1.544 2.12-3.226v-2.754c-.435-.1-.88-.153-1.327-.158-1.45 0-2.48.911-2.48 3.346v.001zm35.2 1.741v-6.907h2.517V36.2c0 1.01.276 1.623 1.229 1.623 1.29 0 2.277-1.445 2.277-3.167v-4.75h2.537v9.836h-2.38c-.007-.59.033-1.178.12-1.762h-.02c-.637 1.251-1.946 2.017-3.35 1.96-2.217 0-2.93-1.406-2.93-3.129v.002zm-26.732.317c0-2.335 2.24-3.424 5.69-3.424v-.356c0-1.188-.456-1.721-1.764-1.721-1.024.04-2.032.269-2.974.672l-.414-1.94c1.192-.444 2.454-.672 3.726-.673 3.054 0 3.966 1.267 3.966 3.464v4.058c0 .792.02 1.721.08 2.534h-2.416c-.008-.556.025-1.112.1-1.663l-.021-.02c-.58 1.198-1.82 1.938-3.152 1.88-.762.05-1.508-.23-2.048-.77-.54-.538-.822-1.283-.772-2.043v.002zm2.438-.275c-.008.313.117.616.343.834.226.218.533.332.847.313 1.219-.102 2.134-1.156 2.061-2.375v-.257c-2.556-.003-3.25.63-3.25 1.482l-.001.003zm-23.895.275c0-2.335 2.24-3.424 5.691-3.424v-.356c0-1.188-.456-1.721-1.764-1.721-1.025.041-2.032.269-2.974.672l-.414-1.94c1.191-.444 2.453-.672 3.726-.673 3.053 0 3.965 1.267 3.965 3.464v4.058c0 .792.02 1.721.078 2.534h-2.415c-.008-.556.025-1.112.1-1.663l-.02-.02c-.58 1.198-1.82 1.938-3.152 1.88-.762.05-1.508-.231-2.048-.77s-.82-1.283-.772-2.043v.002zm2.44-.275c-.008.313.116.616.342.834.226.218.533.332.847.313 1.22-.102 2.135-1.156 2.062-2.375v-.257c-2.557-.003-3.25.63-3.25 1.482l-.001.003zm-25.521.275c0-2.335 2.24-3.424 5.69-3.424v-.356c0-1.188-.456-1.721-1.765-1.721-1.024.041-2.032.27-2.974.672l-.414-1.94c1.192-.444 2.454-.672 3.726-.673 3.054 0 3.965 1.267 3.965 3.464v4.058c0 .792.02 1.721.08 2.534H58.08c-.008-.556.025-1.112.1-1.663l-.02-.02c-.58 1.198-1.82 1.938-3.153 1.88-.76.048-1.506-.233-2.045-.771-.539-.539-.82-1.283-.77-2.042l-.001.002zm2.438-.275c-.008.313.116.616.342.834.226.218.533.332.847.313 1.22-.102 2.134-1.156 2.062-2.375v-.257c-2.556-.003-3.25.63-3.25 1.482l-.001.003zm80.133 2.891V25.297h2.538v14.45h-2.538zm-18.72 0l-1.429-4.354c-.198-.692-.376-1.386-.556-2.217h-.02c-.197.91-.413 1.663-.674 2.475l-1.248 4.097h-2.617l-3.014-9.837h2.775l1.051 3.718c.258.97.536 1.96.773 2.97h.02c.185-.963.423-1.915.714-2.85l1.19-3.84h2.439l1.209 3.718c.337 1.13.594 1.997.793 2.97h.04c.197-1.01.413-1.881.674-2.85l1.13-3.84h2.596l-3.092 9.837-2.755.003zm-46.164 0V28.583h-3.47v-2.197h9.517v2.197h-3.472v11.163h-2.575zm-22.35 0v-6.215c0-1.05-.239-1.702-1.17-1.702-1.11 0-2.26 1.286-2.26 3.207v4.711H41.6v-6.235c0-.97-.198-1.682-1.17-1.682-1.172 0-2.26 1.366-2.26 3.206v4.712h-2.537V29.91h2.4c-.004.59-.044 1.177-.12 1.762l.02.02c.603-1.238 1.873-2.011 3.252-1.98 1.27-.122 2.434.718 2.716 1.96.6-1.219 1.85-1.983 3.211-1.96 1.904 0 2.954 1.049 2.954 3.266v6.77l-2.538-.003zm-17.172 0v-6.294c0-1.01-.276-1.623-1.23-1.623-1.268 0-2.276 1.446-2.276 3.167v4.751h-2.538V29.91h2.4c0 .59-.045 1.18-.138 1.762h.02c.64-1.247 1.946-2.011 3.35-1.96 2.22 0 2.934 1.405 2.934 3.127v6.908h-2.522zm-11.321 0V29.91h2.537v9.836h-2.537zm-5.275 0V25.297h2.538v14.45H13.76zm-4.245 0l-.912-2.73H3.53l-.932 2.73H0L4.62 26.39h3.035l4.718 13.357H9.516zm-4.003-8.749l-1.368 3.98h3.806l-1.368-3.98c-.218-.653-.396-1.247-.536-1.84h-.02c-.162.587-.318 1.182-.515 1.836l.001.004zm13.228-4.077c-.02-.641.353-1.23.941-1.489.589-.258 1.276-.133 1.736.315.46.448.602 1.13.357 1.723-.244.594-.825.98-1.468.976-.412.008-.81-.15-1.105-.437-.295-.288-.462-.681-.463-1.093l.002.005zm41.913-7.09v-1.446c.326-.008.652.019.972.079-.174-.172-.268-.41-.258-.654 0-1.068.833-2.038 2.756-2.038.392-.005.784.028 1.17.099l-.239 1.424c-.314-.057-.632-.09-.951-.098-.552 0-.873.237-.873.574 0 .395.337.613 1.25.613h1.17v1.446h-4.997zm34.975-.574l.158-2.134c1.019.207 2.054.32 3.093.336 2.062 0 3.43-.772 3.43-2.633v-.296h-1.546c-3.864 0-5.313-1.782-5.313-4.593 0-2.593 1.605-4.968 5.253-4.968 1.409 0 2.808.235 4.14.692v8.908c0 2.731-1.764 4.949-6.205 4.949-1.007-.014-2.012-.1-3.007-.26l-.003-.001zm2.438-9.56c0 1.8.893 2.77 2.974 2.77h1.27V7.38c-.598-.244-1.238-.366-1.884-.356-1.484-.001-2.356 1.13-2.356 2.673l-.004-.001zm-15.442 3.76c.002-1.196.162-2.388.475-3.543l2.696-.494c-.353 1.237-.539 2.515-.552 3.8 0 3.03 1.329 3.82 2.716 3.82 1.45 0 2.479-.91 2.479-3.82V.572h2.617v12.451c0 4.156-1.964 6.06-5.314 6.06-3.171-.003-5.114-1.662-5.114-5.624l-.003-.001zm48.503 1.07h-17.985v-2.06h5.89c-.121-2.929-1.568-4.751-4.68-5.542l.634-2.178c4.064 1.069 6.344 3.305 6.582 7.719h12.335V5.22h2.617v9.308l-5.393-.003zm-23.585 0V.57h2.618v13.958l-2.618-.003zm-34.991 0V.57h2.617v13.958l-2.617-.003zm-12.096 0v-2.06h6.126V.57h2.617v13.958l-8.743-.003zm-8.29 0h-10.17c-2.34 0-3.49-.552-4.084-1.525-.477.995-1.514 1.599-2.617 1.524H11.419V.57h2.618v11.896h21.355c.952 0 1.487-.574 1.487-2.375 0-2.83 1.725-5.127 5.056-5.127 3.191 0 4.58 1.82 4.58 4.711v2.79h8.428V5.222h2.618v9.307l-5.394-.003zm-12.71-4.673c0 1.742.753 2.613 2.796 2.613h1.705V9.972c0-2.079-.754-2.95-2.2-2.95-1.448 0-2.298 1.15-2.298 2.834l-.003-.003zM.811 14.525v-2.04c.61-.008 1.22.032 1.823.12-.466-.284-.732-.804-.69-1.346 0-1.663 1.189-3.305 4.3-3.305.598.002 1.195.048 1.785.138l-.316 2.059c-.523-.103-1.055-.156-1.588-.16-1.03 0-1.566.497-1.566 1.171 0 .772.595 1.326 2.26 1.326h1.764v2.04l-7.772-.003zm61.668-3.543L59.643.792l2.598-.357 2.894 10.55-2.656-.003zm72.694-8.607c.02-.717.617-1.284 1.336-1.27.719.013 1.293.602 1.286 1.32-.007.717-.591 1.295-1.31 1.296-.734-.013-1.318-.615-1.307-1.347l-.005.001zm-3.29 0c.016-.723.615-1.298 1.34-1.286.725.013 1.305.607 1.297 1.33-.009.724-.601 1.306-1.326 1.302-.353-.006-.689-.15-.934-.403-.245-.253-.38-.592-.375-.944l-.002.001zm-77-.178c0-.754.613-1.365 1.369-1.365s1.368.611 1.368 1.365-.612 1.365-1.368 1.365c-.755-.003-1.365-.613-1.366-1.366l-.003.001z"/>
</svg>
