<svg xmlns="http://www.w3.org/2000/svg" width="16" height="14.828" viewBox="0 0 16 14.828">
  <path id="margin-limit" d="M14.26,14.828H1.74A1.748,1.748,0,0,1,0,13.084v-8.3A1.749,1.749,0,0,1,1.74,3.035H14.26A1.748,1.748,0,0,1,16,4.78v8.3a1.747,1.747,0,0,1-1.74,1.748ZM12.9,3.688V14.176h1.36a1.094,1.094,0,0,0,1.09-1.092v-8.3a1.1,1.1,0,0,0-1.09-1.093Zm-7.4,0V14.174h4.872V3.691Zm-3.753,0a1.094,1.094,0,0,0-1.1,1.093v8.3a1.093,1.093,0,0,0,1.089,1.1H2.97V3.691Zm9.28,0V14.15h1.227V3.7Zm-7.4,0V14.142H4.846V3.7Zm7.173-1.3a.326.326,0,0,1-.325-.327V1.739A1.1,1.1,0,0,0,9.381.652H6.619A1.1,1.1,0,0,0,5.53,1.744v.317a.325.325,0,0,1-.65,0V1.744A1.746,1.746,0,0,1,6.619,0H9.381a1.748,1.748,0,0,1,1.741,1.744v.317a.327.327,0,0,1-.322.328Z" fill="#6b45bc"/>
</svg>
