<svg xmlns="http://www.w3.org/2000/svg" width="14.902" height="14" viewBox="0 0 14.902 14">
  <path id="market-value" d="M13.368,14H1.614a.3.3,0,0,1-.3-.3V5.856a.3.3,0,0,1,.591,0v7.552H3.533V7.991a.3.3,0,0,1,.3-.3h2.71a.3.3,0,0,1,.3.3v5.417h6.234V5.856a.3.3,0,1,1,.59,0V13.7a.3.3,0,0,1-.3.3ZM4.124,8.288v5.12H6.248V8.288Zm6.947,2.124H8.512a.3.3,0,0,1-.3-.3V7.991a.3.3,0,0,1,.3-.3h2.559a.3.3,0,0,1,.3.3v2.121a.3.3,0,0,1-.3.3ZM8.812,8.288V9.816h1.967V8.288Zm1.5-3.237A1.722,1.722,0,0,1,8.88,4.286a1.723,1.723,0,0,1-2.863,0,1.722,1.722,0,0,1-2.863,0,1.762,1.762,0,0,1-.5.488l-.014.009a1.419,1.419,0,0,1-.155.087l-.041.018a1.292,1.292,0,0,1-.139.059A1.723,1.723,0,0,1,0,3.307a.3.3,0,0,1,.063-.182L2.407.114A.3.3,0,0,1,2.639,0h9.635a.3.3,0,0,1,.233.115l2.333,3.01a.3.3,0,0,1,.062.182,1.734,1.734,0,0,1-1.727,1.732,1.76,1.76,0,0,1-.41-.05,1.638,1.638,0,0,1-.185-.057h-.014a1.723,1.723,0,0,1-.516-.3l-.013-.012a1.616,1.616,0,0,1-.121-.117.51.51,0,0,1-.039-.044,1.278,1.278,0,0,1-.085-.1.394.394,0,0,1-.036-.049l-.016-.024a1.722,1.722,0,0,1-1.43.765ZM8.879,2.961a.3.3,0,0,1,.3.349,1.135,1.135,0,1,0,2.271,0,.3.3,0,0,1,.591,0,1.148,1.148,0,0,0,.145.554.9.9,0,0,0,.066.1l.023.029a.612.612,0,0,0,.058.07.953.953,0,0,0,.1.1l.015.014a1.142,1.142,0,0,0,.325.189.934.934,0,0,0,.14.044,1.116,1.116,0,0,0,.264.034A1.135,1.135,0,0,0,14.308,3.4L12.129.593H2.784L.6,3.4a1.132,1.132,0,0,0,1.5.981l.034-.013c.017-.006.054-.023.084-.037s.092-.048.113-.06h.006a1.173,1.173,0,0,0,.355-.36V3.9a.929.929,0,0,0,.06-.111A1.133,1.133,0,0,0,2.86,3.31a.3.3,0,0,1,.591,0,1.135,1.135,0,0,0,2.271,0,.3.3,0,1,1,.59,0,1.136,1.136,0,1,0,2.272,0,.3.3,0,0,1,.295-.349Z" fill="#6b45bc"/>
</svg>
