<svg xmlns="http://www.w3.org/2000/svg" width="16" height="15.031" viewBox="0 0 16 15.031">
  <path id="market-value" d="M14.353,15.031H1.733a.322.322,0,0,1-.322-.322V6.287a.322.322,0,0,1,.635,0V14.4H3.793V8.58a.322.322,0,0,1,.322-.322h2.91a.322.322,0,0,1,.322.322V14.4H14.04V6.287a.322.322,0,1,1,.633,0v8.422a.322.322,0,0,1-.322.322ZM4.428,8.9v5.5h2.28V8.9Zm7.459,2.28H9.139a.322.322,0,0,1-.322-.322V8.58a.322.322,0,0,1,.322-.322h2.748a.322.322,0,0,1,.322.322v2.277a.322.322,0,0,1-.322.322ZM9.461,8.9v1.641h2.112V8.9Zm1.611-3.475A1.849,1.849,0,0,1,9.534,4.6a1.85,1.85,0,0,1-3.074,0,1.849,1.849,0,0,1-3.074,0,1.892,1.892,0,0,1-.537.524l-.015.01a1.523,1.523,0,0,1-.166.093l-.044.019a1.387,1.387,0,0,1-.149.063A1.85,1.85,0,0,1,0,3.551a.322.322,0,0,1,.068-.2L2.584.122A.322.322,0,0,1,2.833,0H13.178a.322.322,0,0,1,.25.123l2.5,3.232a.322.322,0,0,1,.067.2,1.862,1.862,0,0,1-1.854,1.86,1.89,1.89,0,0,1-.44-.054,1.759,1.759,0,0,1-.2-.061h-.015a1.85,1.85,0,0,1-.554-.322l-.014-.013a1.735,1.735,0,0,1-.13-.126.548.548,0,0,1-.042-.047,1.372,1.372,0,0,1-.091-.107.423.423,0,0,1-.039-.053L12.6,4.6a1.849,1.849,0,0,1-1.535.821ZM9.533,3.179a.322.322,0,0,1,.322.375,1.219,1.219,0,1,0,2.438,0,.322.322,0,0,1,.635,0,1.233,1.233,0,0,0,.156.595.967.967,0,0,0,.071.107l.025.031a.657.657,0,0,0,.062.075,1.023,1.023,0,0,0,.107.107l.016.015a1.226,1.226,0,0,0,.349.2,1,1,0,0,0,.15.047,1.2,1.2,0,0,0,.283.037A1.219,1.219,0,0,0,15.362,3.65L13.023.637H2.989L.644,3.65A1.215,1.215,0,0,0,2.255,4.7l.037-.014c.018-.006.058-.025.09-.04s.1-.052.121-.064h.006A1.259,1.259,0,0,0,2.89,4.2V4.187a1,1,0,0,0,.064-.119,1.216,1.216,0,0,0,.116-.514.322.322,0,0,1,.635,0,1.219,1.219,0,1,0,2.438,0,.322.322,0,1,1,.633,0,1.22,1.22,0,1,0,2.439,0,.322.322,0,0,1,.317-.375Z" fill="#fff"/>
</svg>
