<svg xmlns="http://www.w3.org/2000/svg" width="13" height="15" viewBox="0 0 13 15">
    <path fill="" fill-rule="evenodd" d="M9.305 7.057l3.11 3.318c.184.197.179.505-.012.695l-3.11 3.11c-.097.097-.225.146-.353.146-.128 0-.256-.049-.354-.146-.195-.195-.195-.512 0-.707l2.256-2.257H.944c-.276 0-.5-.223-.5-.5 0-.274.224-.5.5-.5h9.951l-2.32-2.475c-.19-.2-.178-.518.023-.707.2-.187.518-.178.707.023zM4.072.153c.193.198.187.514-.01.707L1.733 3.109h9.87c.277 0 .5.225.5.5 0 .276-.223.5-.5.5L1.68 4.108l2.393 2.47c.192.2.187.516-.01.708-.098.094-.224.14-.349.14-.13 0-.26-.05-.358-.151L.141 3.957c-.093-.095-.143-.223-.14-.356.001-.132.056-.258.151-.351L3.365.14c.2-.191.515-.186.707.013z" fill="#fff" />
</svg>
