<svg xmlns="http://www.w3.org/2000/svg" width="28" height="28" viewBox="0 0 28 28">
    <g fill="none" fill-rule="evenodd" stroke="#6b45bc" stroke-linecap="round" stroke-linejoin="round">
        <path d="M12.966 15.138C15.098 13.7 16.5 11.264 16.5 8.5c0-4.418-3.582-8-8-8-4.419 0-8 3.582-8 8 0 3.29 1.988 6.115 4.828 7.344" transform="translate(2 4)"/>
        <path d="M21 11L13.5 18.5 9.5 14.5 3.5 20.5" transform="translate(2 4)"/>
        <path d="M23.5 8.5L18.5 8.5 23.5 13.5zM6.5 10.095c.066.784.935 1.404 1.998 1.404 1.105 0 2.002-.671 2.002-1.498 0-1.223-1.649-1.428-1.998-1.5C8.152 8.429 6.5 8.223 6.5 7c0-.83.897-1.502 2.002-1.502 1.063 0 1.932.622 1.998 1.405M8.5 4.5L8.5 12.5" transform="translate(2 4)"/>
    </g>
</svg>
