<svg xmlns="http://www.w3.org/2000/svg" width="24" height="21.207" viewBox="0 0 24 21.207">
  <g id="Mutual_Funds_-_dark" data-name="Mutual Funds - dark" transform="translate(0)">
    <path id="Stroke_169" data-name="Stroke 169" d="M12.466,14.638a8,8,0,1,0-7.638.706" transform="translate(0.5 0.5)" fill="none" stroke="#fff" stroke-linecap="round" stroke-linejoin="round" stroke-miterlimit="10" stroke-width="1"/>
    <path id="Stroke_171" data-name="Stroke 171" d="M17.5,0,10,7.5l-4-4-6,6" transform="translate(3.5 11)" fill="none" stroke="#fff" stroke-linecap="round" stroke-linejoin="round" stroke-miterlimit="10" stroke-width="1"/>
    <path id="Stroke_173" data-name="Stroke 173" d="M5,0H0L5,5V0Z" transform="translate(18.5 8.5)" fill="none" stroke="#fff" stroke-linecap="round" stroke-linejoin="round" stroke-miterlimit="10" stroke-width="1"/>
    <path id="Stroke_175" data-name="Stroke 175" d="M0,4.6A1.849,1.849,0,0,0,2,6c1.1,0,2-.672,2-1.5C4,3.278,2.351,3.073,2,3S0,2.723,0,1.5C0,.672.9,0,2,0A1.85,1.85,0,0,1,4,1.4" transform="translate(6.5 5.499)" fill="none" stroke="#fff" stroke-linecap="round" stroke-linejoin="round" stroke-miterlimit="10" stroke-width="1"/>
    <path id="Stroke_177" data-name="Stroke 177" d="M0,0V8" transform="translate(8.5 4.5)" fill="none" stroke="#fff" stroke-linecap="round" stroke-linejoin="round" stroke-miterlimit="10" stroke-width="1"/>
  </g>
</svg>
