<svg xmlns="http://www.w3.org/2000/svg" width="16" height="13.694" viewBox="0 0 16 13.694">
  <g id="Mutual_funds" data-name="Mutual funds" transform="translate(0 -1)">
    <g id="Dark-_-portfolios-tabs-_-tab2-_-inactive" data-name="Dark-/-portfolios-tabs-/-tab2-/-inactive" transform="translate(-91 -1)">
      <path id="mutualfund-inactive" d="M91.382,15.695a.375.375,0,0,1-.27-.114A.4.4,0,0,1,91,15.3a.386.386,0,0,1,.381-.392H106.61a.392.392,0,0,1,0,.783Zm0-1.565a.375.375,0,0,1-.27-.114A.4.4,0,0,1,91,13.738a.386.386,0,0,1,.381-.392H106.61a.392.392,0,0,1,0,.783Zm0-1.565a.375.375,0,0,1-.269-.114A.4.4,0,0,1,91,12.174a.386.386,0,0,1,.381-.392H106.61a.391.391,0,0,1,0,.782Zm0-1.565A.386.386,0,0,1,91,10.608a.4.4,0,0,1,.112-.276.375.375,0,0,1,.269-.114H106.61a.375.375,0,0,1,.269.114.4.4,0,0,1,.112.276.386.386,0,0,1-.381.392Zm0-1.565A.386.386,0,0,1,91,9.043a.4.4,0,0,1,.111-.277.375.375,0,0,1,.27-.114H106.61a.392.392,0,0,1,0,.783ZM106.61,7.869H91.382a.38.38,0,0,1-.333-.2.4.4,0,0,1,.007-.4L94.1,2.186A.377.377,0,0,1,94.426,2h9.138a.377.377,0,0,1,.324.186L106.9,7.214a.4.4,0,0,1,.1.263.386.386,0,0,1-.381.392ZM92.063,7.087h13.866l-2.578-4.3H94.64Z" fill="#fff"/>
    </g>
  </g>
</svg>
