<svg id="Layer_2" data-name="Layer 2" xmlns="http://www.w3.org/2000/svg" width="83" height="41.303" viewBox="0 0 83 41.303">
  <g id="Layer_1" data-name="Layer 1" transform="translate(0)">
    <path id="Path_14233" data-name="Path 14233" d="M74.011,51.424h-2.1a2.7,2.7,0,0,1,0-5.393h7.2a2.7,2.7,0,0,0,0-5.393h-8.7a2.7,2.7,0,0,0,0-5.393H52.437a2.7,2.7,0,1,0,0-5.393H23.371a2.7,2.7,0,0,0,0,5.393H8.391a2.7,2.7,0,1,0,0,5.393H18.576V40.7a2.7,2.7,0,0,1,0,5.262v.066H2.7a2.7,2.7,0,1,0,0,5.393H17.677a2.7,2.7,0,1,0,0,5.393h9.816l.382,2.791a1.81,1.81,0,0,0,2.033,1.566l22.4-3.01a1.8,1.8,0,0,0,1.513-1.347H74.011a2.7,2.7,0,0,0,0-5.393Z" transform="translate(0 -20.501)" fill="#337479"/>
    <circle id="Ellipse_4" data-name="Ellipse 4" cx="2.697" cy="2.697" r="2.697" transform="translate(77.606 30.923)" fill="#e6eff0"/>
    <path id="Path_14234" data-name="Path 14234" d="M73.633,3.326A1.663,1.663,0,1,1,75.3,1.663,1.663,1.663,0,0,1,73.633,3.326Zm0-2.875a1.212,1.212,0,1,0,1.212,1.212A1.212,1.212,0,0,0,73.633.451Z" transform="translate(-49.429)" fill="#e6eff0"/>
    <circle id="Ellipse_5" data-name="Ellipse 5" cx="1.438" cy="1.438" r="1.438" transform="translate(60.978 3.044)" fill="#e6eff0"/>
    <path id="Path_14235" data-name="Path 14235" d="M42.775,17.942a.216.216,0,0,1-.157-.063.222.222,0,0,1,0-.313L44.5,15.687a.222.222,0,0,1,.313.313l-1.879,1.879A.219.219,0,0,1,42.775,17.942Z" transform="translate(-29.226 -10.738)" fill="#e6eff0"/>
    <path id="Path_14236" data-name="Path 14236" d="M44.682,17.914a.216.216,0,0,1-.157-.063l-1.879-1.879a.219.219,0,0,1,0-.313.222.222,0,0,1,.313,0l1.879,1.879a.222.222,0,0,1,0,.313A.216.216,0,0,1,44.682,17.914Z" transform="translate(-29.244 -10.71)" fill="#e6eff0"/>
    <path id="Path_14237" data-name="Path 14237" d="M219.775,28.942a.216.216,0,0,1-.157-.063.222.222,0,0,1,0-.313l1.879-1.879a.222.222,0,0,1,.313.313l-1.879,1.879A.219.219,0,0,1,219.775,28.942Z" transform="translate(-150.788 -18.293)" fill="#e6eff0"/>
    <path id="Path_14238" data-name="Path 14238" d="M221.682,28.914a.216.216,0,0,1-.157-.063l-1.879-1.879a.219.219,0,0,1,0-.313.222.222,0,0,1,.313,0l1.879,1.879a.222.222,0,0,1,0,.313.216.216,0,0,1-.157.063Z" transform="translate(-150.806 -18.265)" fill="#e6eff0"/>
    <path id="Path_14239" data-name="Path 14239" d="M128.708,37.626h-22.6a1.807,1.807,0,0,1-1.807-1.807V8.71a1.807,1.807,0,0,1,1.807-1.81h13.559l10.849,10.849V35.831a1.807,1.807,0,0,1-1.807,1.795Z" transform="translate(-71.633 -4.739)" fill="#65979a"/>
    <path id="Path_14240" data-name="Path 14240" d="M111.137,15.931,100.29,5.085a.626.626,0,0,0-.445-.185H86.287a2.437,2.437,0,0,0-2.434,2.434v4.8l-3.611.445-2.69.36a2.434,2.434,0,0,0-2.089,2.734l3.6,26.883a2.437,2.437,0,0,0,2.412,2.111,2.308,2.308,0,0,0,.313-.022l22.4-2.994a2.44,2.44,0,0,0,2.089-2.737l-.269-2.023h2.872a2.437,2.437,0,0,0,2.443-2.434V16.376a.626.626,0,0,0-.185-.445ZM100.488,7.039l8.71,8.71h-8.726Zm4.57,32.032a1.181,1.181,0,0,1-1.015,1.328L81.629,43.406a1.181,1.181,0,0,1-1.315-1.015L76.7,15.508a1.168,1.168,0,0,1,.235-.868,1.184,1.184,0,0,1,.78-.454L80.4,13.83l3.445-.432v21.06a2.437,2.437,0,0,0,2.434,2.434H104.76Zm3.843-3.445H86.287a1.181,1.181,0,0,1-1.181-1.181V7.334a1.181,1.181,0,0,1,1.181-1.181H99.219V16.376a.626.626,0,0,0,.626.626h10.223V34.457a1.181,1.181,0,0,1-1.181,1.168Z" transform="translate(-51.812 -3.365)" fill="#cdd"/>
    <path id="Path_14241" data-name="Path 14241" d="M139.042,63.15H126.006a.626.626,0,0,0,0,1.253h13.036a.626.626,0,1,0,0-1.253Z" transform="translate(-86.11 -43.371)" fill="#cdd"/>
    <path id="Path_14242" data-name="Path 14242" d="M150.432,80h-6.806a.626.626,0,0,0,0,1.253h0c2.609,0,6.577-.022,7.019,0h.081a.589.589,0,0,0,.179-.028.626.626,0,0,0,.442-.692C151.272,80,150.786,80,150.432,80Z" transform="translate(-98.211 -54.943)" fill="#cdd"/>
  </g>
</svg>
