<svg xmlns="http://www.w3.org/2000/svg" width="200.957" height="99.524" viewBox="0 0 200.957 99.524">
  <g id="Layer_1-2" data-name="Layer 1-2" transform="translate(-679.13 -535.451)">
    <path id="Path_1632" data-name="Path 1632" d="M857.47,609.964h-5.057a6.5,6.5,0,0,1,0-13h17.358a6.5,6.5,0,1,0,0-13H848.8a6.5,6.5,0,1,0,0-13h-43.32a6.5,6.5,0,1,0,0-13H735.447a6.5,6.5,0,0,0,0,13h-36.1a6.5,6.5,0,0,0,0,13h24.543v.159a6.506,6.506,0,0,1,0,12.679v.158H685.628a6.5,6.5,0,0,0,0,13h36.1a6.5,6.5,0,0,0,0,13h23.653l.921,6.724a4.362,4.362,0,0,0,4.878,3.777l.02,0,53.97-7.253a4.347,4.347,0,0,0,3.645-3.245H857.47a6.5,6.5,0,1,0,0-13Z" fill="#cdd"/>
    <circle id="Ellipse_2" data-name="Ellipse 2" cx="6.498" cy="6.498" r="6.498" transform="matrix(0.16, -0.987, 0.987, 0.16, 865.177, 621.835)" fill="#cdd"/>
    <path id="Path_1633" data-name="Path 1633" d="M737.454,543.466a4.008,4.008,0,1,1,4.008-4.008h0A4.016,4.016,0,0,1,737.454,543.466Zm0-6.929a2.921,2.921,0,1,0,2.921,2.921,2.92,2.92,0,0,0-2.921-2.921Z" fill="#99b9bc"/>
    <circle id="Ellipse_3" data-name="Ellipse 3" cx="3.464" cy="3.464" r="3.464" transform="translate(826.066 542.786)" fill="#99b9bc"/>
    <path id="Path_1634" data-name="Path 1634" d="M711.779,552.809a.521.521,0,0,1-.377-.151.535.535,0,0,1,0-.755l4.528-4.528a.536.536,0,0,1,.755.755l-4.529,4.528A.525.525,0,0,1,711.779,552.809Z" fill="#99b9bc"/>
    <path id="Path_1635" data-name="Path 1635" d="M716.33,552.809a.521.521,0,0,1-.377-.151l-4.529-4.528a.528.528,0,0,1-.007-.747l.007-.008a.537.537,0,0,1,.755,0l4.528,4.528a.535.535,0,0,1,0,.755A.521.521,0,0,1,716.33,552.809Z" fill="#99b9bc"/>
    <path id="Path_1636" data-name="Path 1636" d="M845.364,561.111a.521.521,0,0,1-.377-.151.535.535,0,0,1,0-.755l4.528-4.528a.536.536,0,0,1,.755.755l-4.529,4.528A.525.525,0,0,1,845.364,561.111Z" fill="#99b9bc"/>
    <path id="Path_1637" data-name="Path 1637" d="M849.915,561.111a.525.525,0,0,1-.378-.151l-4.528-4.528a.528.528,0,0,1-.007-.747l.007-.008a.537.537,0,0,1,.755,0l4.528,4.528a.537.537,0,0,1,0,.755A.521.521,0,0,1,849.915,561.111Z" fill="#99b9bc"/>
    <path id="Path_1638" data-name="Path 1638" d="M816.662,614.7H762.2a4.355,4.355,0,0,1-4.355-4.355V545.02a4.354,4.354,0,0,1,4.347-4.362h32.679L821.017,566.8v43.57A4.355,4.355,0,0,1,816.662,614.7Z" fill="#fff"/>
    <path id="Path_1639" data-name="Path 1639" d="M822.081,565.73l-26.136-26.136a1.508,1.508,0,0,0-1.072-.445H762.2a5.871,5.871,0,0,0-5.864,5.864v11.57l-8.7,1.071-6.483.868a5.864,5.864,0,0,0-5.034,6.589l8.671,64.777a5.873,5.873,0,0,0,5.812,5.087,5.444,5.444,0,0,0,.754-.053l53.978-7.215a5.879,5.879,0,0,0,5.034-6.6l-.649-4.876h6.92a5.87,5.87,0,0,0,5.887-5.856V566.8A1.506,1.506,0,0,0,822.081,565.73ZM796.421,544.3l20.988,20.989H796.383Zm11.011,77.185a2.846,2.846,0,0,1-2.441,3.2h0l-54.008,7.246a2.847,2.847,0,0,1-3.17-2.446l-8.7-64.777a2.819,2.819,0,0,1,.566-2.091,2.855,2.855,0,0,1,1.88-1.094l6.468-.86,8.3-1.042v50.747a5.873,5.873,0,0,0,5.865,5.864h44.528Zm9.26-8.3H762.2a2.846,2.846,0,0,1-2.846-2.845V545.013a2.846,2.846,0,0,1,2.846-2.846h31.162V566.8a1.51,1.51,0,0,0,1.509,1.51h24.634v42.06a2.844,2.844,0,0,1-2.845,2.815Z" fill="#65979a"/>
    <path id="Path_1640" data-name="Path 1640" d="M806.677,583.111H775.266a1.509,1.509,0,1,0,0,3.019h31.411a1.509,1.509,0,1,0,0-3.019Z" fill="#65979a"/>
    <path id="Path_1641" data-name="Path 1641" d="M804.964,595.828h-16.4a1.509,1.509,0,1,0,0,3.019h0c6.287,0,15.849-.053,16.913,0h.2a1.464,1.464,0,0,0,.431-.068,1.51,1.51,0,0,0,1.064-1.668C806.987,595.828,805.817,595.828,804.964,595.828Z" fill="#65979a"/>
  </g>
</svg>
