<svg id="orders-search-icon" xmlns="http://www.w3.org/2000/svg" width="27.844" height="28" viewBox="0 0 27.844 28">
  <g id="orders-search-icon-2" data-name="orders-search-icon" transform="translate(0)">
    <path id="Path" d="M19.929,28H.609A.6.6,0,0,1,0,27.417V.583A.6.6,0,0,1,.609,0h19.32a.6.6,0,0,1,.609.583v3.5a.609.609,0,0,1-1.217,0V1.167H1.217V26.833h18.1V18.019a.609.609,0,0,1,1.217,0v9.4A.6.6,0,0,1,19.929,28Z" fill="#fff"/>
    <path id="Shape" d="M.493,8.562a6,6,0,0,1,1.4-6.746A6.664,6.664,0,0,1,8.929.471a6.193,6.193,0,0,1,3.988,5.719,6.334,6.334,0,0,1-6.452,6.189H6.458A6.467,6.467,0,0,1,.493,8.562Z" transform="translate(9.362 4.806)" fill="none" stroke="#fff" stroke-width="1"/>
    <path id="Path-2" data-name="Path" d="M6.173,5.088a.627.627,0,0,1-.359-.111L.251,1.057A.569.569,0,0,1,.117.24.627.627,0,0,1,.969.112l5.57,3.949a.57.57,0,0,1,.221.656.607.607,0,0,1-.586.4Z" transform="translate(21.053 13.439)" fill="#fff"/>
    <path id="Path-3" data-name="Path" d="M10.957,1.167H.609A.6.6,0,0,1,0,.583.6.6,0,0,1,.609,0H10.957a.6.6,0,0,1,.609.583A.6.6,0,0,1,10.957,1.167Z" transform="translate(4.401 19.332)" fill="#fff"/>
    <path id="Path-4" data-name="Path" d="M4.139,1.167H.609A.6.6,0,0,1,0,.583.6.6,0,0,1,.609,0h3.53a.6.6,0,0,1,.609.583.6.6,0,0,1-.609.583Z" transform="translate(4.431 15.861)" fill="#fff"/>
    <path id="Path-5" data-name="Path" d="M10.957,1.167H.609A.6.6,0,0,1,0,.583.6.6,0,0,1,.609,0H10.957a.6.6,0,0,1,.609.583A.6.6,0,0,1,10.957,1.167Z" transform="translate(4.401 22.802)" fill="#fff"/>
    <path id="Path-6" data-name="Path" d="M2.523,5.1a.586.586,0,0,1-.274-.064L.375,4.128A.586.586,0,0,1,0,3.636a.576.576,0,0,1,.286-.543.631.631,0,0,1,.634,0l1.37.659L4.349.29A.606.606,0,0,1,4.721.019.632.632,0,0,1,5.183.08a.57.57,0,0,1,.225.793L3.041,4.811A.614.614,0,0,1,2.523,5.1Z" transform="translate(12.694 8.355)" fill="#fff"/>
  </g>
</svg>
