<svg xmlns="http://www.w3.org/2000/svg" width="15" height="13" viewBox="0 0 15 13">
    <path fill-rule="evenodd" d="M3.609.444c.276 0 .5.224.5.5l-.001 9.925 2.47-2.392c.199-.192.515-.187.708.011.19.2.186.515-.012.707l-3.317 3.213c-.093.091-.218.141-.348.141H3.6c-.133-.002-.26-.057-.35-.152L.14 9.183c-.191-.198-.186-.514.012-.706.197-.192.514-.188.707.011l2.25 2.326V.944c0-.276.225-.5.5-.5zM11.07.147l3.109 3.109c.196.195.196.512 0 .707-.195.195-.511.195-.706 0l-2.257-2.259v9.9c0 .277-.224.5-.5.5-.275 0-.499-.223-.499-.5V1.653L7.741 3.974c-.096.09-.219.135-.342.135-.133 0-.266-.053-.364-.158-.189-.201-.179-.518.023-.706l3.318-3.11c.195-.184.503-.18.694.012z"/>
</svg>
