<svg xmlns="http://www.w3.org/2000/svg" width="15.17" height="24" viewBox="0 0 15.17 24">
  <path id="portfolio-position" d="M7.584,24C2.764,24,0,21.671,0,17.61a13.1,13.1,0,0,1,2.091-6.747A6.808,6.808,0,0,1,7.584,7.2a6.8,6.8,0,0,1,5.494,3.663,13.06,13.06,0,0,1,2.092,6.748C15.17,21.671,12.4,24,7.584,24Zm0-15.82c-1.678,0-3.338,1.142-4.672,3.217A12.2,12.2,0,0,0,.978,17.61c0,3.487,2.346,5.408,6.606,5.408S14.19,21.1,14.19,17.61a12.245,12.245,0,0,0-1.934-6.21C10.921,9.323,9.262,8.18,7.584,8.18Zm.145,12.211a.44.44,0,0,1-.44-.471V19.3a4.087,4.087,0,0,1-2.112-.9.49.49,0,0,1,.275-.9.5.5,0,0,1,.305.106,3.1,3.1,0,0,0,1.563.773V16.115c-1.484-.369-2.118-.98-2.118-2.041a2.051,2.051,0,0,1,2.047-1.955h.04v-.194a.441.441,0,0,1,.881,0v.221a3.624,3.624,0,0,1,1.628.646.543.543,0,0,1,.253.43.494.494,0,0,1-.15.347.479.479,0,0,1-.335.134H9.53a.446.446,0,0,1-.273-.094,3.027,3.027,0,0,0-1.117-.528V15.3c1.486.353,2.149.98,2.149,2.03a2.084,2.084,0,0,1-2.083,2H8.171v.594a.44.44,0,0,1-.441.471Zm.413-4.078V18.42c.711-.08,1.137-.469,1.137-1.041,0-.469-.185-.794-1.136-1.065Zm-.825-3.285c-.673.079-1.108.471-1.108,1,0,.469.181.793,1.108,1.065Zm2.5-5.991a.482.482,0,0,1-.2-.046L9.61,7a.491.491,0,0,1-.241-.657C10.931,2.932,10.64,1.633,10.6,1.5a1.216,1.216,0,0,0-.127.171,7.6,7.6,0,0,0-.386.711l-.014.028c-.334.674-.68,1.37-1.44,1.46a1.257,1.257,0,0,1-.15.009c-.752,0-1.632-.663-2.943-2.218a4.717,4.717,0,0,0-.51-.541A20.186,20.186,0,0,0,6.154,6.343a.489.489,0,0,1-.58.619.5.5,0,0,1-.356-.336C3.434.678,4.142.3,4.522.09A.733.733,0,0,1,4.87,0c.5,0,1,.516,1.422,1.02,1.415,1.687,2,1.869,2.181,1.869a.228.228,0,0,0,.042,0c.241-.028.476-.517.683-.947a8.181,8.181,0,0,1,.455-.808,1.222,1.222,0,0,1,1-.689.827.827,0,0,1,.391.1c1.008.553.706,2.933-.788,6.211a.487.487,0,0,1-.445.286Z" fill="#fff"/>
</svg>
