<svg xmlns="http://www.w3.org/2000/svg" width="21.6" height="18" viewBox="0 0 21.6 18">
  <g id="Icons_products_premium" data-name="Icons/products/premium" transform="translate(-5 -7)">
    <path id="products_premium" data-name="products/premium" d="M18.05,7A1.352,1.352,0,0,1,19.4,8.35V9.7H25.25a1.352,1.352,0,0,1,1.35,1.35v12.6A1.352,1.352,0,0,1,25.25,25H6.35A1.352,1.352,0,0,1,5,23.65V11.05A1.352,1.352,0,0,1,6.35,9.7H12.2V8.35A1.352,1.352,0,0,1,13.55,7ZM8.6,16H5.9V23.65a.45.45,0,0,0,.45.45h18.9a.45.45,0,0,0,.45-.45V16H23V18.25a.45.45,0,0,1-.45.45h-2.7a.45.45,0,0,1-.45-.45V16H12.2V18.25a.45.45,0,0,1-.45.45H9.05a.45.45,0,0,1-.45-.45Zm2.7,0H9.5v1.8h1.8Zm10.8,0H20.3v1.8h1.8Zm3.151-5.4H6.35a.45.45,0,0,0-.45.45V15.1H25.7V11.05A.45.45,0,0,0,25.25,10.6Zm-7.2-2.7h-4.5a.45.45,0,0,0-.45.45V9.7h5.4V8.35A.45.45,0,0,0,18.05,7.9Z" fill="#fff" fill-rule="evenodd"/>
  </g>
</svg>
