<svg xmlns="http://www.w3.org/2000/svg" width="16" height="15.673" viewBox="0 0 16 15.673">
  <path id="portfolio-cost" d="M14.627,15.673H1.371A1.377,1.377,0,0,1,0,14.3V5.373A1.379,1.379,0,0,1,1.365,4l-.093-.3A.32.32,0,0,1,1.3,3.46a.314.314,0,0,1,.185-.16L12.084.014a.38.38,0,0,1,.1-.014.326.326,0,0,1,.15.037.322.322,0,0,1,.158.189L13.651,4h.975a.323.323,0,0,1,0,.647h-.77L14.28,6.02a.3.3,0,0,1,.009.085h.336a.323.323,0,0,1,.322.323V8.856h.73A.323.323,0,0,1,16,9.18v3.3a.324.324,0,0,1-.322.324h-.73V15.35A.324.324,0,0,1,14.627,15.673ZM.646,6.54V14.3a.729.729,0,0,0,.725.727H14.3V12.8H12.24a1.974,1.974,0,0,1,0-3.948H14.3v-2.1H1.371A1.35,1.35,0,0,1,.646,6.54Zm10.271,4.286a1.33,1.33,0,0,0,1.324,1.327h3.111V9.5H12.238a1.329,1.329,0,0,0-1.323,1.327Zm1.05-10.1-9.982,3.1L2.69,6.1H12.859l.7-.208L11.967.728Zm-10.6,3.92a.727.727,0,0,0,0,1.455H2.01L1.563,4.646Zm11.094,6.631a.448.448,0,1,1,.447-.447.448.448,0,0,1-.447.447Z" fill="#6b45bc"/>
</svg>
