<svg xmlns="http://www.w3.org/2000/svg" width="24" height="17" viewBox="0 0 24 17">
  <g id="Portfolios_-_dark" data-name="Portfolios - dark" transform="translate(0)">
    <path id="Stroke_6" data-name="Stroke 6" d="M.575,4.916l2,6.659A2,2,0,0,0,4.488,13H18.614a2,2,0,0,0,1.873-1.3l2.162-5.767A5.512,5.512,0,0,0,23,4h0a1,1,0,0,0-1-1H8.721a1,1,0,0,1-.949-.683L7.228.684A1,1,0,0,0,6.279,0H1A1,1,0,0,0,0,1,13.627,13.627,0,0,0,.575,4.916Z" transform="translate(0.5 3.5)" fill="none" stroke="#fff" stroke-linecap="round" stroke-linejoin="round" stroke-miterlimit="10" stroke-width="1"/>
    <path id="Stroke_8" data-name="Stroke 8" d="M19,6V2a2,2,0,0,0-2-2H2A2,2,0,0,0,0,2V3" transform="translate(2.5 0.5)" fill="none" stroke="#fff" stroke-linecap="round" stroke-linejoin="round" stroke-miterlimit="10" stroke-width="1"/>
  </g>
</svg>
