<svg id="Products_-_dark" data-name="Products - dark" xmlns="http://www.w3.org/2000/svg" width="23" height="24.114" viewBox="0 0 23 24.114">
  <path id="Stroke_172" data-name="Stroke 172" d="M11,23,0,20V3L11,0,22,3V20L11,23" transform="translate(0.5 0.5)" fill="none" stroke="#fff" stroke-linecap="round" stroke-linejoin="round" stroke-miterlimit="10" stroke-width="1"/>
  <path id="Stroke_173" data-name="Stroke 173" d="M0,23V0" transform="translate(11.5 0.5)" fill="none" stroke="#fff" stroke-linecap="round" stroke-linejoin="round" stroke-miterlimit="10" stroke-width="1"/>
  <path id="Stroke_174" data-name="Stroke 174" d="M0,3V0" transform="translate(7.5 16.5)" fill="none" stroke="#fff" stroke-linecap="round" stroke-linejoin="round" stroke-miterlimit="10" stroke-width="1"/>
  <path id="Stroke_175" data-name="Stroke 175" d="M0,1.5,1.5,0,3,1.5" transform="translate(6 16.5)" fill="none" stroke="#fff" stroke-linecap="round" stroke-linejoin="round" stroke-miterlimit="10" stroke-width="1"/>
  <path id="Stroke_176" data-name="Stroke 176" d="M0,1,3,0" transform="translate(13.5 18.5)" fill="none" stroke="#fff" stroke-linecap="round" stroke-linejoin="round" stroke-miterlimit="10" stroke-width="1"/>
  <path id="Stroke_177" data-name="Stroke 177" d="M0,0V9.5l1,1,1-1,1,1,1-1V1" transform="translate(15.5 2)" fill="none" stroke="#fff" stroke-linecap="round" stroke-linejoin="round" stroke-miterlimit="10" stroke-width="1"/>
  <path id="Stroke_178" data-name="Stroke 178" d="M4,0V9.5l-1,1-1-1-1,1-1-1V1" transform="translate(3.5 2)" fill="none" stroke="#fff" stroke-linecap="round" stroke-linejoin="round" stroke-miterlimit="10" stroke-width="1"/>
</svg>
