<svg xmlns="http://www.w3.org/2000/svg" width="14.177" height="15.981" viewBox="0 0 14.177 15.981">
  <path id="profit-loss" d="M11.09,16a.351.351,0,0,1-.349-.371h-.007V1.217L8.608,3.35a.35.35,0,0,1-.235.091.346.346,0,0,1-.247-.1.351.351,0,0,1-.012-.483L10.842.118a.334.334,0,0,1,.114-.075.344.344,0,0,1,.128-.024.358.358,0,0,1,.248.1l2.729,2.736a.353.353,0,1,1-.5.5L11.44,1.223V15.629a.351.351,0,0,1-.35.371Zm-8-.02H3.076a.333.333,0,0,1-.13-.028.344.344,0,0,1-.115-.076L.1,13.14a.352.352,0,1,1,.5-.5l2.137,2.137V.371a.35.35,0,1,1,.7,0v14.41L5.561,12.65a.352.352,0,0,1,.247-.1.343.343,0,0,1,.091.012.351.351,0,0,1,.157.587L3.327,15.881a.337.337,0,0,1-.114.077.349.349,0,0,1-.122.022Z" transform="translate(0.004 -0.019)" fill="#6b45bc"/>
</svg>
