<svg xmlns="http://www.w3.org/2000/svg" width="14.185" height="16" viewBox="0 0 14.185 16">
  <path id="profit-loss" d="M11.1,16.019a.351.351,0,0,1-.349-.371h-.007V1.218L8.618,3.354a.35.35,0,0,1-.235.091.346.346,0,0,1-.247-.1.351.351,0,0,1-.012-.484L10.855.118a.334.334,0,0,1,.114-.075A.344.344,0,0,1,11.1.019a.358.358,0,0,1,.248.1l2.732,2.739a.354.354,0,0,1-.5.5L11.454,1.224V15.648a.351.351,0,0,1-.35.371ZM3.094,16H3.08a.333.333,0,0,1-.13-.028.344.344,0,0,1-.115-.076L.1,13.156a.354.354,0,0,1,.5-.5l2.14,2.14V.371a.35.35,0,0,1,.7,0V14.8l2.127-2.134a.352.352,0,0,1,.247-.1.343.343,0,0,1,.091.012.351.351,0,0,1,.157.588L3.331,15.9a.337.337,0,0,1-.114.077A.349.349,0,0,1,3.095,16Z" transform="translate(0.004 -0.019)" fill="#fff"/>
</svg>
