<svg id="Reports_-_dark" data-name="Reports - dark" xmlns="http://www.w3.org/2000/svg" width="19" height="24" viewBox="0 0 19 24">
  <path id="Stroke_29" data-name="Stroke 29" d="M18,23H0V6L6,0H18V23Z" transform="translate(0.5 0.5)" fill="none" stroke="#fff" stroke-linecap="round" stroke-linejoin="round" stroke-miterlimit="10" stroke-width="1"/>
  <path id="Stroke_31" data-name="Stroke 31" d="M0,6H6V0" transform="translate(0.5 0.5)" fill="none" stroke="#fff" stroke-linecap="round" stroke-linejoin="round" stroke-miterlimit="10" stroke-width="1"/>
  <path id="Stroke_33" data-name="Stroke 33" d="M0,0V4H4A4,4,0,0,0,0,0Z" transform="translate(12.5 2.5)" fill="none" stroke="#fff" stroke-linecap="round" stroke-linejoin="round" stroke-miterlimit="10" stroke-width="1"/>
  <path id="Stroke_35" data-name="Stroke 35" d="M3.5,0A3.5,3.5,0,1,0,7,3.5" transform="translate(8.5 3.5)" fill="none" stroke="#fff" stroke-linecap="round" stroke-linejoin="round" stroke-miterlimit="10" stroke-width="1"/>
  <path id="Stroke_37" data-name="Stroke 37" d="M0,2V0" transform="translate(3.5 18.5)" fill="none" stroke="#fff" stroke-linecap="round" stroke-linejoin="round" stroke-miterlimit="10" stroke-width="1"/>
  <path id="Stroke_39" data-name="Stroke 39" d="M0,5V0" transform="translate(5.5 15.5)" fill="none" stroke="#fff" stroke-linecap="round" stroke-linejoin="round" stroke-miterlimit="10" stroke-width="1"/>
  <path id="Stroke_41" data-name="Stroke 41" d="M0,8V0" transform="translate(7.5 12.5)" fill="none" stroke="#fff" stroke-linecap="round" stroke-linejoin="round" stroke-miterlimit="10" stroke-width="1"/>
  <path id="Stroke_43" data-name="Stroke 43" d="M0,0H6" transform="translate(9.5 14.5)" fill="none" stroke="#fff" stroke-linecap="round" stroke-linejoin="round" stroke-miterlimit="10" stroke-width="1"/>
  <path id="Stroke_45" data-name="Stroke 45" d="M0,0H6" transform="translate(9.5 17.5)" fill="none" stroke="#fff" stroke-linecap="round" stroke-linejoin="round" stroke-miterlimit="10" stroke-width="1"/>
  <path id="Stroke_47" data-name="Stroke 47" d="M0,0H6" transform="translate(9.5 20.5)" fill="none" stroke="#fff" stroke-linecap="round" stroke-linejoin="round" stroke-miterlimit="10" stroke-width="1"/>
</svg>
