<svg xmlns="http://www.w3.org/2000/svg" width="28" height="28" viewBox="0 0 28 28">
    <g fill="none" fill-rule="evenodd" stroke="#6b45bc" stroke-linecap="round" stroke-linejoin="round">
        <path d="M18.5 23.5L0.5 23.5 0.5 6.5 6.5 0.5 18.5 0.5z" transform="translate(5 2)"/>
        <path d="M.5 6.5L6.5 6.5 6.5.5M12.5 2.5v4h4c0-2.209-1.791-4-4-4h0z" transform="translate(5 2)"/>
        <path d="M12 3.5c-1.933 0-3.5 1.567-3.5 3.5s1.567 3.5 3.5 3.5 3.5-1.567 3.5-3.5M3.5 20.5L3.5 18.5M5.5 20.5L5.5 15.5M7.5 20.5L7.5 12.5M9.5 14.5L15.5 14.5M9.5 17.5L15.5 17.5M9.5 20.5L15.5 20.5" transform="translate(5 2)"/>
    </g>
</svg>
