<svg xmlns="http://www.w3.org/2000/svg" width="16" height="16" viewBox="0 0 16 16">
    <path fill="" d="M.334 15.996c-.184 0-.334-.156-.334-.348 0-.192.15-.347.334-.348H.67V3.824c0-.193.15-.348.334-.348h4.343V2.433c0-.092.034-.18.096-.246L7.447.1c.065-.067.154-.103.245-.1h6.674c.185 0 .334.156.334.348v14.956h.335c.184 0 .333.156.334.348 0 .192-.15.348-.334.348l-14.7-.004zm13.7-.7V.69H8.02v14.614h1.002V12.87c0-.092.035-.18.098-.246.063-.065.148-.102.237-.102h3.341c.09 0 .174.037.237.102s.099.154.099.246v2.435l1-.008zm-1.67 0V13.21H9.69v2.087h2.674zm-5.012 0V4.168H1.337v11.128h6.015zm0-11.824V1.18l-1.337 1.39v.9h1.337zM2.674 14.253c-.09 0-.174-.036-.237-.102-.063-.065-.098-.153-.098-.246v-3.478c0-.093.035-.181.098-.246.063-.066.148-.102.237-.102h3.34c.09 0 .175.036.237.102.063.065.098.153.098.246v3.478c0 .093-.035.181-.098.246-.062.066-.148.102-.236.102H2.674zm3.006-.7V12.51H4.68v1.043H5.68zm-2.673 0H4.01V12.51H3.007v1.043zm2.673-1.738v-1.043H4.68v1.043H5.68zm-1.67 0v-1.043H3.007v1.043H4.01zm5.346 0c-.089 0-.174-.037-.237-.102s-.098-.154-.098-.246v-1.391c0-.193.15-.348.335-.348h3.341c.185 0 .335.155.336.348v1.39c0 .093-.036.182-.099.247s-.148.102-.237.102h-3.34zm.333-.7h2.674v-.7H9.689v.7zm-7.013-1.74c-.184 0-.334-.155-.334-.347V5.55c0-.192.15-.348.334-.348h3.342c.184.001.333.156.334.348v3.478c0 .192-.15.347-.334.348H2.676zm3.007-.699V7.633H4.681v1.043h1.002zm-2.673 0h1.003V7.633H3.01v1.043zm2.673-1.739V5.905H4.681V6.95l1.002-.012zm-1.67 0V5.905H3.01V6.95l1.003-.012zm5.346 2.087c-.089 0-.174-.036-.237-.102-.063-.065-.098-.154-.098-.246v-1.37c0-.093.035-.182.098-.247s.148-.102.237-.102H12.7c.089 0 .174.037.237.102s.098.154.098.246v1.391c0 .092-.035.181-.098.246-.063.066-.148.102-.237.102l-3.341-.02zm.333-.7h2.674v-.7H9.692v.7zM9.36 6.237c-.185 0-.335-.155-.335-.348V4.5c0-.193.15-.348.335-.348H12.7c.185 0 .335.155.335.348v1.39c0 .193-.15.348-.335.348H9.36zm.333-.7h2.674v-.7H9.692v.7zM9.36 3.451c-.089 0-.174-.037-.237-.102s-.098-.154-.098-.246V1.712c0-.092.035-.181.098-.246.063-.066.148-.102.237-.102H12.7c.089 0 .174.036.237.102.063.065.098.154.098.246v1.39c0 .093-.035.182-.098.247s-.148.102-.237.102H9.36zm.333-.7h2.674v-.7H9.692v.7z"/>
</svg>
