<svg xmlns="http://www.w3.org/2000/svg" width="130" height="111.457" viewBox="0 0 130 111.457">
    <defs>
        <style>
            .cls-3{fill:#f4bd25}.cls-4{fill:#fff}.cls-6{fill:none;stroke:#65979a;stroke-linecap:round;stroke-width:3px}.cls-9{stroke:none}
        </style>
    </defs>
    <g id="Group_427" transform="translate(-123 -272.543)">
        <ellipse id="Oval" cx="65" cy="9.5" fill="#e6eff0" rx="65" ry="9.5" transform="translate(123 365)"/>
        <g id="Group_403" transform="translate(0 -46.142)">
            <g id="Path_294" style="mix-blend-mode:darken;isolation:isolate" fill="#cddfe1">
                <path d="M44.725 86.95c-5.702 0-11.231-1.117-16.435-3.318-5.028-2.126-9.544-5.171-13.423-9.05-3.878-3.879-6.923-8.395-9.05-13.422C3.617 55.956 2.5 50.426 2.5 44.725c0-5.702 1.116-11.231 3.317-16.435 2.127-5.028 5.172-9.544 9.05-13.423 3.879-3.878 8.395-6.923 13.423-9.05C33.494 3.617 39.023 2.5 44.725 2.5c5.701 0 11.23 1.116 16.435 3.317 5.027 2.127 9.543 5.172 13.422 9.05 3.879 3.879 6.924 8.395 9.05 13.423 2.201 5.204 3.317 10.733 3.317 16.435 0 5.701-1.116 11.23-3.317 16.435-2.126 5.027-5.171 9.543-9.05 13.422-3.879 3.879-8.395 6.924-13.422 9.05-5.204 2.201-10.734 3.317-16.435 3.317z" class="cls-9" transform="translate(139 325)"/>
                <path fill="#649799" d="M44.725 5C39.36 5 34.158 6.05 29.264 8.12c-4.73 2-8.98 4.865-12.629 8.515-3.65 3.65-6.515 7.899-8.515 12.629C6.05 34.158 5 39.36 5 44.724c0 5.366 1.05 10.568 3.12 15.462 2 4.73 4.865 8.978 8.515 12.628 3.65 3.65 7.899 6.515 12.629 8.516 4.894 2.07 10.096 3.12 15.46 3.12 5.366 0 10.568-1.05 15.462-3.12 4.73-2 8.978-4.866 12.628-8.516 3.65-3.65 6.515-7.898 8.516-12.628 2.07-4.894 3.12-10.096 3.12-15.461s-1.05-10.567-3.12-15.461c-2-4.73-4.866-8.98-8.516-12.629-3.65-3.65-7.898-6.515-12.628-8.515C55.292 6.05 50.09 5 44.725 5m0-5c24.7 0 44.724 20.024 44.724 44.725 0 24.7-20.024 44.724-44.724 44.724C20.024 89.45 0 69.425 0 44.725 0 20.024 20.024 0 44.725 0z" transform="translate(139 325)"/>
            </g>
            <g id="alert" transform="translate(198.675 382.158)">
                <path id="Path_295" d="M19.945 29.545l-2.989 1.9L3.192 56.774 2.748 59.4l2.492.551h30.553l1.591-1.126-.584-2.556-14.366-25.3z" class="cls-3" transform="translate(-.903 -27.971)"/>
                <g id="Group_397">
                    <g id="Group_396">
                        <path id="Path_292" d="M37.477 53.767L22.92 28.554a4.478 4.478 0 0 0-7.757 0L.607 53.767a4.478 4.478 0 0 0 3.878 6.717H33.6a4.478 4.478 0 0 0 3.878-6.717zm-1.932 3.363a2.224 2.224 0 0 1-1.945 1.123H4.485a2.247 2.247 0 0 1-1.946-3.37L17.1 29.67a2.247 2.247 0 0 1 3.892 0l14.553 25.213a2.224 2.224 0 0 1 0 2.247z" class="cls-3" transform="translate(0 -26.315)"/>
                    </g>
                </g>
                <g id="Group_399" transform="translate(17.927 11.135)">
                    <g id="Group_398">
                        <rect id="Rectangle_39" width="2.231" height="11.156" class="cls-4" rx="1.116"/>
                    </g>
                </g>
                <g id="Group_401" transform="translate(17.555 24.522)">
                    <g id="Group_400">
                        <path id="Path_293" d="M237.49 355.99a1.488 1.488 0 1 0 1.488 1.488 1.489 1.489 0 0 0-1.488-1.488z" class="cls-4" transform="translate(-236.002 -355.99)"/>
                    </g>
                </g>
            </g>
            <g id="Group_402" transform="translate(182.779 338.014)" style="mix-blend-mode:darken;isolation:isolate">
                <path id="Line_124" d="M0 0L0 27.137" class="cls-6" transform="translate(0 5.628)"/>
                <path id="Line_125" d="M18.721 0L0 0" class="cls-6" transform="translate(0 32.765)"/>
            </g>
        </g>
        <g id="Path_314" fill="none">
            <path d="M7.574 0a7.317 7.317 0 0 1 7.574 7.03c0 3.883-15.148 3.883-15.148 0A7.317 7.317 0 0 1 7.574 0z" class="cls-9" transform="translate(176 272.543)"/>
            <path fill="#65979a" d="M7.574 3C5.34 3 3.477 4.417 3.079 6.283c.74.295 2.27.66 4.495.66s3.754-.365 4.495-.66C11.67 4.417 9.806 3 7.574 3m0-3c4.183 0 7.574 3.148 7.574 7.03 0 1.942-3.787 2.912-7.574 2.912S0 8.972 0 7.03C0 3.148 3.39 0 7.574 0z" transform="translate(176 272.543)"/>
        </g>
        <g id="Rectangle_41" fill="none" stroke="#65979a" stroke-linecap="round" stroke-linejoin="round" stroke-width="3px">
            <path d="M0 0H12V12H0z" class="cls-9" transform="rotate(-54 384.746 -55.649)"/>
            <path d="M1.5 1.5H10.5V10.5H1.5z" transform="rotate(-54 384.746 -55.649)"/>
        </g>
        <path id="Line_127" d="M0 0L0 6" class="cls-6" transform="translate(183.5 283.5)"/>
        <path id="Line_128" d="M6 0L0 0" class="cls-6" transform="translate(217.5 323.5)"/>
        <path id="Line_129" d="M0 0L6 0" class="cls-6" transform="translate(143.5 323.5)"/>
        <path id="Line_130" d="M0 6L0 0" class="cls-6" transform="translate(183.5 357.5)"/>
    </g>
</svg>
