<svg xmlns="http://www.w3.org/2000/svg" width="28" height="28" viewBox="0 0 28 28">
    <g fill="none" fill-rule="evenodd" stroke="#6b45bc" stroke-linecap="round" stroke-linejoin="round">
        <path d="M21.455 13.624l.01.004c.88.33 1.822-.257 1.942-1.188.06-.472.093-.952.093-1.44 0-.489-.032-.969-.093-1.44-.12-.932-1.062-1.518-1.941-1.189l-.011.004c-.72.27-1.52-.103-1.833-.803-.231-.517-.513-1.007-.84-1.462-.454-.63-.38-1.495.22-1.989h.002c.726-.598.687-1.71-.061-2.278-.76-.575-1.59-1.057-2.48-1.43-.867-.367-1.852.152-2.007 1.081-.13.771-.844 1.267-1.621 1.186-.274-.029-.553-.044-.835-.044-.282 0-.561.015-.835.044-.777.081-1.492-.415-1.62-1.186C9.39.565 8.405.046 7.537.412c-.89.374-1.721.856-2.48 1.431-.748.568-.786 1.68-.061 2.277v.001c.6.494.677 1.358.223 1.99-.327.454-.61.944-.841 1.461-.313.7-1.114 1.072-1.833.803l-.011-.004C1.654 8.042.713 8.628.593 9.56.532 10.031.5 10.511.5 11c0 .488.032.968.093 1.44.12.931 1.062 1.517 1.94 1.188l.012-.004c.719-.269 1.52.103 1.833.803.232.517.514 1.007.84 1.462.455.631.379 1.495-.221 1.99h-.001c-.725.597-.687 1.71.062 2.277.758.575 1.59 1.057 2.479 1.432.868.365 1.853-.154 2.008-1.083.128-.77.843-1.267 1.62-1.186.274.03.553.044.835.044.282 0 .56-.015.835-.044.777-.08 1.492.416 1.62 1.186.156.93 1.14 1.448 2.009 1.083.889-.375 1.72-.857 2.479-1.432.748-.568.787-1.68.06-2.277h0c-.6-.495-.675-1.359-.221-1.99.327-.455.609-.945.84-1.462.314-.7 1.114-1.072 1.833-.803h0z" transform="translate(2 3)"/>
        <path d="M16.5 11c0 2.485-2.015 4.5-4.5 4.5S7.5 13.485 7.5 11 9.515 6.5 12 6.5s4.5 2.015 4.5 4.5h0z" transform="translate(2 3)"/>
    </g>
</svg>
