<svg xmlns="http://www.w3.org/2000/svg" width="24" height="22.431" viewBox="0 0 24 22.431">
  <g id="Settings_-_dark" data-name="Settings - dark" transform="translate(0 0.216)">
    <path id="Stroke_3" data-name="Stroke 3" d="M20.955,13.33l.011,0a1.449,1.449,0,0,0,1.941-1.188,11.2,11.2,0,0,0,0-2.881,1.449,1.449,0,0,0-1.941-1.188l-.011,0a1.468,1.468,0,0,1-1.833-.8,8.325,8.325,0,0,0-.84-1.462A1.455,1.455,0,0,1,18.5,3.827h0a1.45,1.45,0,0,0-.061-2.277A11.468,11.468,0,0,0,15.964.118,1.45,1.45,0,0,0,13.956,1.2a1.457,1.457,0,0,1-1.621,1.186,7.945,7.945,0,0,0-1.67,0A1.456,1.456,0,0,1,9.045,1.2,1.45,1.45,0,0,0,7.037.118,11.445,11.445,0,0,0,4.558,1.549,1.45,1.45,0,0,0,4.5,3.826h0a1.456,1.456,0,0,1,.222,1.989,8.393,8.393,0,0,0-.841,1.462,1.468,1.468,0,0,1-1.833.8l-.011,0A1.449,1.449,0,0,0,.093,9.265a11.2,11.2,0,0,0,0,2.881,1.449,1.449,0,0,0,1.941,1.188l.011,0a1.468,1.468,0,0,1,1.833.8A8.393,8.393,0,0,0,4.719,15.6,1.456,1.456,0,0,1,4.5,17.584h0a1.45,1.45,0,0,0,.062,2.277,11.49,11.49,0,0,0,2.479,1.432,1.451,1.451,0,0,0,2.008-1.083,1.456,1.456,0,0,1,1.62-1.186,7.945,7.945,0,0,0,1.67,0,1.458,1.458,0,0,1,1.621,1.186,1.451,1.451,0,0,0,2.008,1.083,11.514,11.514,0,0,0,2.479-1.432,1.45,1.45,0,0,0,.061-2.277h0a1.455,1.455,0,0,1-.221-1.989,8.325,8.325,0,0,0,.84-1.462,1.468,1.468,0,0,1,1.833-.8Z" transform="translate(0.5 0.294)" fill="none" stroke="#fff" stroke-linecap="round" stroke-linejoin="round" stroke-miterlimit="10" stroke-width="1"/>
    <path id="Stroke_5" data-name="Stroke 5" d="M9,4.5A4.5,4.5,0,1,1,4.5,0,4.5,4.5,0,0,1,9,4.5Z" transform="translate(7.5 6.5)" fill="none" stroke="#fff" stroke-linecap="round" stroke-linejoin="round" stroke-miterlimit="10" stroke-width="1"/>
  </g>
</svg>
