<svg xmlns="http://www.w3.org/2000/svg" width="22" height="15.583" viewBox="0 0 22 15.583">
  <path id="show-password" d="M12,4.918c8.325,0,10.95,7.571,10.976,7.645a.465.465,0,0,1,0,.288,11.7,11.7,0,0,1-21.956-.022.447.447,0,0,1,0-.28A11.558,11.558,0,0,1,12,4.918Zm0,.916A10.446,10.446,0,0,0,1.943,12.686,10.541,10.541,0,0,0,12,19.584a10.68,10.68,0,0,0,10.055-6.875A10.667,10.667,0,0,0,12,5.834Zm0,1.834A5.041,5.041,0,1,1,8.435,9.144,5,5,0,0,1,12,7.668Zm0,.916a4.125,4.125,0,1,0,2.917,1.21A4.1,4.1,0,0,0,12,8.584Z" transform="translate(-1 -4.918)" fill="#fff" fill-rule="evenodd"/>
</svg>
