<svg xmlns="http://www.w3.org/2000/svg" width="24" height="24" viewBox="0 0 24 24">
    <path fill="#6b45bc" fill-rule="evenodd" d="M12 4.918c8.325 0 10.95 7.571 10.976 7.645.031.096.032.192.002.288-.025.074-2.559 7.65-10.978 7.65-8.428 0-10.954-7.6-10.978-7.672-.03-.092-.03-.188 0-.28C1.044 12.476 3.51 4.918 12 4.918zm0 .916c-7.284 0-9.694 5.84-10.057 6.852.37 1.013 2.825 6.898 10.057 6.898 7.14 0 9.678-5.88 10.055-6.875C21.663 11.68 19.13 5.834 12 5.834zm0 1.834c1.347 0 2.613.522 3.565 1.476 1.966 1.966 1.966 5.165 0 7.131-.952.954-2.218 1.476-3.565 1.476s-2.613-.522-3.565-1.476c-1.966-1.966-1.966-5.165 0-7.131.952-.954 2.218-1.476 3.565-1.476zm0 .916c-1.102 0-2.138.431-2.917 1.21-1.608 1.61-1.608 4.222 0 5.83.78.78 1.815 1.21 2.917 1.21 1.102 0 2.138-.43 2.917-1.21 1.608-1.608 1.608-4.22 0-5.83-.78-.779-1.815-1.21-2.917-1.21z"/>
</svg>
