<svg id="Logout_-_dark" data-name="Logout - dark" xmlns="http://www.w3.org/2000/svg" width="22" height="24" viewBox="0 0 22 24">
  <path id="Stroke_15" data-name="Stroke 15" d="M7,7H2A2.263,2.263,0,0,1,.021,5.875L0,0" transform="translate(5.5 13.5)" fill="none" stroke="#fff" stroke-linecap="round" stroke-linejoin="round" stroke-miterlimit="10" stroke-width="1"/>
  <path id="Stroke_17" data-name="Stroke 17" d="M14,0H2A2,2,0,0,0,0,2V7" transform="translate(5.5 0.5)" fill="none" stroke="#fff" stroke-linecap="round" stroke-linejoin="round" stroke-miterlimit="10" stroke-width="1"/>
  <path id="Stroke_19" data-name="Stroke 19" d="M0,2V0" transform="translate(14.5 11.5)" fill="none" stroke="#fff" stroke-linecap="round" stroke-linejoin="round" stroke-miterlimit="10" stroke-width="1"/>
  <path id="Stroke_21" data-name="Stroke 21" d="M0,0H10" transform="translate(0.5 10.5)" fill="none" stroke="#fff" stroke-linecap="round" stroke-linejoin="round" stroke-miterlimit="10" stroke-width="1"/>
  <path id="Stroke_23" data-name="Stroke 23" d="M0,0,3,3,0,6" transform="translate(7.5 7.5)" fill="none" stroke="#fff" stroke-linecap="round" stroke-linejoin="round" stroke-miterlimit="10" stroke-width="1"/>
  <path id="Stroke_25" data-name="Stroke 25" d="M7.341,0h0a1.671,1.671,0,0,0-.654.134L1.006,2.569A1.659,1.659,0,0,0,0,4.094V21.341a1.66,1.66,0,0,0,2.313,1.525l5.682-2.435A1.659,1.659,0,0,0,9,18.906V1.659A1.659,1.659,0,0,0,7.341,0Z" transform="translate(12.5 0.5)" fill="none" stroke="#fff" stroke-linecap="round" stroke-linejoin="round" stroke-miterlimit="10" stroke-width="1"/>
</svg>
