<svg xmlns="http://www.w3.org/2000/svg" width="17.333" height="13.181" viewBox="0 0 17.333 13.181">
  <path id="sort-icon" d="M3.564,13.181a.529.529,0,0,1-.361-.138L.143,10.219a.445.445,0,0,1,.006-.66A.529.529,0,0,1,.51,9.421a.528.528,0,0,1,.354.133l2.19,2.021V.471A.492.492,0,0,1,3.564,0a.492.492,0,0,1,.509.471v11.1l2.19-2.021a.538.538,0,0,1,.721,0,.456.456,0,0,1,.149.332.451.451,0,0,1-.149.333l-3.06,2.825A.535.535,0,0,1,3.564,13.181Zm10.2-1.883h-5.1a.473.473,0,1,1,0-.942h5.1a.473.473,0,1,1,0,.942Zm1.02-2.825H8.663a.472.472,0,1,1,0-.941h6.12a.472.472,0,1,1,0,.941ZM15.8,5.649H8.663a.472.472,0,1,1,0-.941H15.8a.472.472,0,1,1,0,.941Zm1.021-2.825H8.663a.492.492,0,0,1-.51-.471.492.492,0,0,1,.51-.471h8.16a.492.492,0,0,1,.509.471A.492.492,0,0,1,16.824,2.824Z" transform="translate(0 0)" fill="#fff"/>
</svg>
