<svg xmlns="http://www.w3.org/2000/svg" viewBox="0 0 35.57 26.57"><defs><style>.cls-1{fill:#83afb4;}</style></defs><title>swipe-right-dark</title><g id="Layer_2" data-name="Layer 2"><g id="Layer_1-2" data-name="Layer 1"><path class="cls-1" d="M35.5,13.11l-13-13a.27.27,0,0,0-.36,0L19.27,2.92l0,0a.24.24,0,0,0,0,.34l0,0,7.53,7.53H.25a.25.25,0,0,0-.25.25v4.41a.25.25,0,0,0,.25.25H26.83L19.27,23.3a.27.27,0,0,0-.08.18.25.25,0,0,0,.08.18L22.1,26.5a.26.26,0,0,0,.18.07.24.24,0,0,0,.18-.07l13-13a.27.27,0,0,0,0-.36Z"/></g></g></svg>