<?xml version="1.0" encoding="utf-8"?>
<svg id="master-artboard" viewBox="0 0 1400 980" version="1.1" xmlns="http://www.w3.org/2000/svg" x="0px" y="0px" style="enable-background:new 0 0 1400 980;" width="1400px" height="980px"><rect id="ee-background" x="0" y="0" width="1400" height="980" style="fill: white; fill-opacity: 0; pointer-events: none;"/><g transform="matrix(-36.88364884371845, -0.05949755496597518, 0.05949755496597518, -36.88364884371845, 1353.3937179705358, 982.5312581207018)"><title>swipe-right</title><g id="Layer_2" data-name="Layer 2"><g id="Layer_1-2" data-name="Layer 1"><path class="cls-1" d="M35.5,13.11l-13-13a.25.25,0,0,0-.35,0L19.27,2.92l0,0a.25.25,0,0,0,0,.34l0,0,7.53,7.53H.25a.25.25,0,0,0-.25.25v4.41a.25.25,0,0,0,.25.25H26.83L19.27,23.3a.25.25,0,0,0,0,.35L22.1,26.5a.25.25,0,0,0,.35,0l13-13a.25.25,0,0,0,0-.35Z" style="fill:#83afb4;"/></g></g></g></svg>