<svg xmlns="http://www.w3.org/2000/svg" viewBox="0 0 29.47 26"><defs><style>.cls-1{fill:#fff;}</style></defs><g id="Layer_2" data-name="Layer 2"><g id="Layer_1-2" data-name="Layer 1"><path class="cls-1" d="M25.54,19H18.86a3.93,3.93,0,1,1,0-7.85h6.68a3.93,3.93,0,1,1,0,7.85ZM18.86,13.1a1.93,1.93,0,1,0,0,3.85h6.68a1.93,1.93,0,1,0,0-3.85Z"/><path class="cls-1" d="M22.72,26H7.63A7.64,7.64,0,0,1,0,18.36v-15a1,1,0,0,1,2,0v15A5.64,5.64,0,0,0,7.63,24H22.72A1.32,1.32,0,0,0,24,22.68V18a1,1,0,1,1,2,0v4.73A3.32,3.32,0,0,1,22.72,26Z"/><path class="cls-1" d="M25,13.09a1,1,0,0,1-1-1V8a1.3,1.3,0,0,0-1.32-1.31H3.32A3.33,3.33,0,0,1,3.32,0H25a1,1,0,0,1,0,2H3.32A1.32,1.32,0,0,0,2,3.32a1.33,1.33,0,0,0,.39.94,1.31,1.31,0,0,0,.93.39h19.4A3.32,3.32,0,0,1,26,8v4.13A1,1,0,0,1,25,13.09Z"/></g></g></svg>