<svg xmlns="http://www.w3.org/2000/svg" width="16" height="16" viewBox="0 0 16 16">
    <path fill-rule="evenodd" d="M12.47 15.46c-.162 0-.318-.052-.452-.151L8 12.349l-4.018 2.954c-.338.248-.835.162-1.077-.176-.145-.202-.183-.456-.106-.696L4.332 9.67.32 6.733c-.275-.202-.386-.544-.281-.871.104-.328.392-.54.732-.54h4.963L7.269.539C7.374.211 7.66 0 8 0c.34 0 .627.211.732.538l1.535 4.785h4.962c.34 0 .628.211.732.539.105.327-.006.67-.281.871l-4.012 2.935 1.533 4.77c.078.24.04.494-.105.696-.147.204-.38.326-.627.326z"/>
</svg>
