<?xml version="1.0" standalone="no"?>
<!DOCTYPE svg PUBLIC "-//W3C//DTD SVG 1.1//EN" "http://www.w3.org/Graphics/SVG/1.1/DTD/svg11.dtd" >
<svg xmlns="http://www.w3.org/2000/svg">
<metadata>Generated by IcoMoon</metadata>
<defs>
<font id="tadawul-icon-font" horiz-adv-x="1024">
<font-face units-per-em="1024" ascent="960" descent="-64" />
<missing-glyph horiz-adv-x="1024" />
<glyph unicode="&#x20;" horiz-adv-x="512" d="" />
<glyph unicode="&#xe900;" glyph-name="sort" d="M540.8 206.784c-16-16-41.6-16-56.96 0l-117.76 117.76c-16 16-16 41.6 0 56.96 7.68 7.68 17.92 11.52 28.8 11.52h236.16c22.4 0 40.32-17.92 40.32-40.32 0-10.88-4.48-21.12-11.52-28.8l-119.040-117.12zM483.2 688.704c16 16 41.6 16 56.96 0l117.76-117.76c16-16 16-41.6 0-56.96-7.68-7.68-17.92-11.52-28.8-11.52h-236.16c-22.4 0-40.32 17.92-40.32 40.32 0 10.88 4.48 21.12 11.52 28.8l119.040 117.12z" />
<glyph unicode="&#xe901;" glyph-name="alinma-symbol" d="M384 38.4l249.6 83.2v742.4l-249.6-83.2v-742.4zM1024 960v-1024h-1024v1024h1024z" />
<glyph unicode="&#xe902;" glyph-name="home" d="M889.6 646.4l-294.4 224c-51.2 38.4-115.2 38.4-166.4 0l-294.4-224c-38.4-25.6-57.6-70.4-57.6-108.8v-396.8c0-76.8 64-140.8 140.8-140.8h595.2c76.8 0 140.8 64 140.8 140.8v396.8c-6.4 38.4-25.6 83.2-64 108.8zM428.8 76.8v249.6c0 12.8 12.8 19.2 19.2 19.2h128c12.8 0 19.2-12.8 19.2-19.2v-249.6h-166.4zM870.4 140.8c0-32-25.6-64-64-64h-134.4v249.6c0 51.2-44.8 96-96 96h-128c-51.2 0-96-44.8-96-96v-249.6h-134.4c-32 0-64 25.6-64 64v396.8c0 19.2 6.4 38.4 25.6 51.2l294.4 224c12.8 0 25.6 6.4 38.4 6.4s25.6-6.4 38.4-12.8l294.4-224c12.8-12.8 25.6-32 25.6-51.2v-390.4z" />
<glyph unicode="&#xe903;" glyph-name="market" d="M717.376 170.944c-19.2 0-38.4 19.2-38.4 38.4v217.6c0 19.2 19.2 38.4 38.4 38.4s38.4-19.2 38.4-38.4v-217.6c0-19.2-19.2-38.4-38.4-38.4zM525.376 170.944c-19.2 0-38.4 19.2-38.4 38.4v326.4c0 19.2 19.2 38.4 38.4 38.4s38.4-19.2 38.4-38.4v-326.4c0-19.2-19.2-38.4-38.4-38.4zM909.376 170.944c-19.2 0-38.4 19.2-38.4 38.4v428.8c0 19.2 19.2 38.4 38.4 38.4s38.4-19.2 38.4-38.4v-428.8c0-19.2-12.8-38.4-38.4-38.4zM909.376-1.856h-710.4c-70.4 0-121.6 57.6-121.6 121.6v736c0 19.2 19.2 38.4 38.4 38.4s38.4-19.2 38.4-38.4v-736c0-25.6 19.2-44.8 44.8-44.8h710.4c19.2 0 38.4-19.2 38.4-38.4s-12.8-38.4-38.4-38.4zM326.976 170.944c-19.2 0-38.4 19.2-38.4 38.4v217.6c0 19.2 19.2 38.4 38.4 38.4s38.4-19.2 38.4-38.4v-217.6c0-19.2-12.8-38.4-38.4-38.4zM326.976 606.144c-12.8 0-25.6 6.4-32 19.2-12.8 19.2-6.4 44.8 12.8 51.2l166.4 102.4c32 19.2 64 19.2 96 0l128-83.2c6.4 0 12.8 0 19.2 0l166.4 185.6c12.8 12.8 38.4 19.2 51.2 0 12.8-12.8 19.2-38.4 0-51.2l-166.4-185.6c-32-32-76.8-38.4-115.2-19.2l-128 83.2c-6.4 0-6.4 0-12.8 0l-166.4-102.4c-6.4 0-12.8 0-19.2 0z" />
<glyph unicode="&#xe904;" glyph-name="trading" d="M332.8 38.4v729.6l128-128c12.8-12.8 38.4-12.8 51.2 0 6.4 6.4 12.8 19.2 12.8 25.6s0 19.2-6.4 25.6l-192 192c-6.4 6.4-12.8 6.4-19.2 12.8-6.4 0-19.2 0-25.6 0s-6.4-6.4-12.8-6.4l-192-192c-19.2-19.2-19.2-44.8 0-57.6s38.4-19.2 51.2 0l128 128v-729.6c0-19.2 19.2-38.4 38.4-38.4s38.4 19.2 38.4 38.4zM691.2 857.6v-729.6l-128 128c-12.8 12.8-38.4 12.8-51.2 0s-12.8-38.4 0-51.2l192-192c6.4-6.4 6.4-6.4 12.8-6.4 6.4-6.4 19.2-6.4 32 0 6.4 0 6.4 6.4 12.8 6.4l192 192c6.4 6.4 12.8 19.2 12.8 25.6 0 12.8-6.4 19.2-12.8 25.6-12.8 12.8-38.4 12.8-51.2 0l-128-128v729.6c-6.4 19.2-25.6 38.4-44.8 38.4s-38.4-19.2-38.4-38.4z" />
<glyph unicode="&#xe905;" glyph-name="transfer" d="M102.4 627.2h729.6l-128-128c-12.8-12.8-12.8-38.4 0-51.2 6.4-6.4 19.2-12.8 25.6-12.8s19.2 6.4 25.6 12.8l192 192c6.4 0 6.4 6.4 12.8 12.8 0 6.4 0 19.2 0 25.6s-6.4 6.4-6.4 12.8l-192 192c-12.8 12.8-38.4 12.8-51.2 0s-25.6-38.4-6.4-51.2l128-128h-729.6c-19.2 0-38.4-19.2-38.4-38.4s19.2-38.4 38.4-38.4zM921.6 268.8h-729.6l128 128c12.8 12.8 12.8 38.4 0 51.2s-38.4 12.8-51.2 0l-192-192c-6.4 0-6.4-6.4-12.8-12.8 0-6.4 0-19.2 0-25.6s6.4-6.4 6.4-12.8l192-192c12.8-6.4 25.6-12.8 32-12.8 12.8 0 19.2 6.4 25.6 12.8 12.8 12.8 12.8 38.4 0 51.2l-128 128h729.6c19.2 0 38.4 19.2 38.4 38.4s-19.2 38.4-38.4 38.4z" />
<glyph unicode="&#xe906;" glyph-name="order-list" d="M307.2 512h-153.6c-51.2 0-89.6 38.4-89.6 89.6v153.6c0 51.2 38.4 89.6 89.6 89.6h153.6c51.2 0 89.6-38.4 89.6-89.6v-153.6c0-51.2-38.4-89.6-89.6-89.6zM153.6 768c-6.4 0-12.8-6.4-12.8-12.8v-153.6c0-6.4 6.4-12.8 12.8-12.8h153.6c6.4 0 12.8 6.4 12.8 12.8v153.6c0 6.4-6.4 12.8-12.8 12.8h-153.6zM307.2 51.2h-153.6c-51.2 0-89.6 38.4-89.6 89.6v153.6c0 51.2 38.4 89.6 89.6 89.6h153.6c51.2 0 89.6-38.4 89.6-89.6v-153.6c0-51.2-38.4-89.6-89.6-89.6zM153.6 307.2c-6.4 0-12.8-6.4-12.8-12.8v-153.6c0-6.4 6.4-12.8 12.8-12.8h153.6c6.4 0 12.8 6.4 12.8 12.8v153.6c0 6.4-6.4 12.8-12.8 12.8h-153.6zM921.6 716.8h-409.6c-19.2 0-38.4 19.2-38.4 38.4s19.2 38.4 38.4 38.4h409.6c19.2 0 38.4-19.2 38.4-38.4s-19.2-38.4-38.4-38.4zM716.8 563.2h-204.8c-19.2 0-38.4 19.2-38.4 38.4s19.2 38.4 38.4 38.4h204.8c19.2 0 38.4-19.2 38.4-38.4s-19.2-38.4-38.4-38.4zM921.6 256h-409.6c-19.2 0-38.4 19.2-38.4 38.4s19.2 38.4 38.4 38.4h409.6c19.2 0 38.4-19.2 38.4-38.4s-19.2-38.4-38.4-38.4zM716.8 102.4h-204.8c-19.2 0-38.4 19.2-38.4 38.4s19.2 38.4 38.4 38.4h204.8c19.2 0 38.4-19.2 38.4-38.4s-19.2-38.4-38.4-38.4z" />
<glyph unicode="&#xe907;" glyph-name="sectors" d="M857.6 960h-460.8c-89.6 0-166.4-70.4-166.4-166.4v-70.4h-64c-96 6.4-166.4-70.4-166.4-160v-627.2h1024v857.6c0 96-70.4 166.4-166.4 166.4zM96 32v531.2c0 38.4 32 70.4 70.4 70.4h70.4v-601.6h-140.8zM518.4 32v134.4h211.2v-134.4h-211.2zM928 32h-96v230.4h-409.6v-230.4h-96v761.6c0 38.4 32 70.4 70.4 70.4h460.8c38.4 0 70.4-32 70.4-70.4v-761.6zM422.4 499.2h403.2v-96h-403.2v96zM422.4 729.6h403.2v-96h-403.2v96z" />
<glyph unicode="&#xe908;" glyph-name="search" d="M1011.2 19.2l-204.8 204.8c64 76.8 102.4 179.2 102.4 281.6 0 249.6-204.8 454.4-454.4 454.4s-454.4-204.8-454.4-454.4 204.8-454.4 454.4-454.4c108.8 0 204.8 38.4 281.6 102.4l204.8-204.8c6.4-6.4 19.2-12.8 32-12.8s25.6 6.4 32 12.8c25.6 19.2 25.6 51.2 6.4 70.4zM96 505.6c0 198.4 160 358.4 358.4 358.4s358.4-160 358.4-358.4-160-358.4-358.4-358.4c-198.4 0-358.4 160-358.4 358.4z" />
<glyph unicode="&#xe909;" glyph-name="redirect" d="M844.8 428.8c-25.6 0-51.2-19.2-51.2-51.2v-230.4c0-64-51.2-115.2-115.2-115.2h-467.2c-64 0-115.2 51.2-115.2 115.2v467.2c0 32 12.8 64 32 83.2s51.2 32 83.2 32h236.8c25.6 0 51.2 19.2 51.2 51.2s-25.6 44.8-51.2 44.8h-236.8c-57.6 0-108.8-19.2-153.6-64s-57.6-89.6-57.6-147.2v-460.8c0-121.6 96-217.6 211.2-217.6h467.2c115.2 0 211.2 96 211.2 211.2v236.8c0 25.6-19.2 44.8-44.8 44.8zM1017.6 928c-6.4 12.8-12.8 19.2-25.6 25.6-6.4 6.4-12.8 6.4-19.2 6.4h-332.8c-19.2 0-44.8-19.2-44.8-51.2s19.2-51.2 51.2-51.2h217.6l-320-307.2c-19.2-19.2-19.2-51.2 0-70.4 12.8-6.4 19.2-12.8 32-12.8s25.6 6.4 32 12.8l313.6 313.6v-217.6c0-25.6 19.2-51.2 51.2-51.2s51.2 32 51.2 57.6v326.4c0 6.4 0 12.8-6.4 19.2z" />
<glyph unicode="&#xe90a;" glyph-name="close" d="M582.4 448l236.8 236.8c19.2 19.2 19.2 51.2 0 70.4s-51.2 19.2-70.4 0l-236.8-236.8-236.8 236.8c-19.2 19.2-51.2 19.2-70.4 0s-19.2-51.2 0-70.4l236.8-236.8-236.8-236.8c-19.2-19.2-19.2-51.2 0-70.4 12.8-6.4 25.6-12.8 38.4-12.8s25.6 6.4 32 12.8l236.8 236.8 236.8-236.8c6.4-6.4 19.2-12.8 32-12.8s25.6 6.4 32 12.8c19.2 19.2 19.2 51.2 0 70.4l-230.4 236.8z" />
<glyph unicode="&#xe90b;" glyph-name="bookmark-o" d="M755.2 960h-486.4c-83.2 0-147.2-64-147.2-147.2v-748.8c0-32 12.8-64 32-89.6 44.8-51.2 128-57.6 179.2-6.4l153.6 140.8c12.8 12.8 32 12.8 44.8 0l153.6-140.8c25.6-19.2 57.6-32 89.6-32 70.4 0 128 57.6 128 128v748.8c0 83.2-64 147.2-147.2 147.2zM806.4 64c0-25.6-32-38.4-51.2-25.6l-153.6 140.8c-51.2 44.8-128 44.8-172.8 0l-153.6-140.8c-12.8-12.8-32-12.8-44.8 0-6.4 6.4-6.4 12.8-6.4 19.2v755.2c0 25.6 25.6 51.2 51.2 51.2h486.4c25.6 0 51.2-25.6 51.2-51.2v-748.8z" />
<glyph unicode="&#xe90c;" glyph-name="bookmark" d="M755.2 960h-486.4c-83.2 0-147.2-64-147.2-147.2v-748.8c0-32 12.8-64 32-89.6 44.8-51.2 128-57.6 179.2-6.4l153.6 140.8c12.8 12.8 32 12.8 44.8 0l153.6-140.8c25.6-19.2 57.6-32 89.6-32 70.4 0 128 57.6 128 128v748.8c0 83.2-64 147.2-147.2 147.2z" />
<glyph unicode="&#xe90d;" glyph-name="star-o" d="M998.4 608c-19.2 25.6-51.2 44.8-83.2 51.2l-185.6 25.6c-12.8 0-19.2 6.4-25.6 19.2l-76.8 166.4c-12.8 25.6-32 44.8-57.6 57.6-64 32-140.8 6.4-172.8-57.6l-83.2-166.4c0-12.8-12.8-12.8-19.2-19.2l-185.6-25.6c-25.6-6.4-51.2-19.2-70.4-38.4-25.6-19.2-38.4-51.2-38.4-89.6s12.8-64 38.4-89.6l134.4-128c6.4-6.4 12.8-19.2 6.4-25.6l-32-185.6c-6.4-25.6 0-57.6 12.8-83.2 12.8-32 44.8-51.2 76.8-64 12.8-6.4 25.6-6.4 38.4-6.4 19.2 0 38.4 6.4 57.6 12.8l166.4 89.6c6.4 6.4 19.2 6.4 25.6 0l166.4-89.6c25.6-12.8 51.2-19.2 76.8-12.8 32 6.4 64 25.6 83.2 51.2s25.6 64 19.2 96l-32 185.6c0 12.8 0 19.2 6.4 25.6l134.4 128c19.2 19.2 32 44.8 38.4 70.4 12.8 44.8 0 76.8-19.2 102.4zM921.6 512l-134.4-128c-32-32-44.8-70.4-38.4-115.2l32-185.6c0-6.4 0-19.2-6.4-25.6s-12.8-12.8-19.2-12.8c-6.4 0-12.8 0-19.2 0l-166.4 89.6c-38.4 19.2-83.2 19.2-115.2 0l-166.4-89.6c-6.4-6.4-12.8-6.4-25.6 0-6.4 0-12.8 6.4-19.2 12.8 0 6.4-6.4 12.8 0 19.2l32 185.6c6.4 51.2-6.4 89.6-38.4 121.6l-134.4 128c0 6.4-6.4 12.8-6.4 19.2s0 12.8 6.4 19.2c6.4 6.4 12.8 6.4 19.2 6.4l185.6 25.6c38.4 12.8 76.8 38.4 96 76.8l83.2 166.4c6.4 6.4 12.8 12.8 19.2 12.8 0 0 6.4 0 12.8 0s6.4 0 12.8 0 12.8-6.4 12.8-12.8l83.2-166.4c19.2-38.4 51.2-64 96-70.4l185.6-25.6c6.4 0 12.8-6.4 19.2-12.8s6.4-12.8 6.4-25.6c-6.4 0-12.8-6.4-12.8-12.8z" />
<glyph unicode="&#xe90e;" glyph-name="star" d="M998.4 608c-19.2 25.6-51.2 44.8-83.2 51.2l-185.6 25.6c-12.8 0-19.2 6.4-25.6 19.2l-76.8 166.4c-12.8 25.6-32 44.8-57.6 57.6-64 32-140.8 6.4-172.8-57.6l-83.2-166.4c0-12.8-12.8-12.8-19.2-19.2l-185.6-25.6c-25.6-6.4-51.2-19.2-70.4-38.4-25.6-19.2-38.4-51.2-38.4-89.6s12.8-64 38.4-89.6l134.4-128c6.4-6.4 12.8-19.2 6.4-25.6l-32-185.6c-6.4-25.6 0-57.6 12.8-83.2 12.8-32 44.8-51.2 76.8-64 12.8-6.4 25.6-6.4 38.4-6.4 19.2 0 38.4 6.4 57.6 12.8l166.4 89.6c6.4 6.4 19.2 6.4 25.6 0l166.4-89.6c25.6-12.8 51.2-19.2 76.8-12.8 32 6.4 64 25.6 83.2 51.2s25.6 64 19.2 96l-32 185.6c0 12.8 0 19.2 6.4 25.6l134.4 128c19.2 19.2 32 44.8 38.4 70.4 12.8 44.8 0 76.8-19.2 102.4z" />
<glyph unicode="&#xe90f;" glyph-name="flag" d="M928 902.4c-275.2-83.2-544 96-819.2 25.6-6.4 19.2-25.6 32-44.8 32-25.6 0-51.2-19.2-51.2-51.2v-928c0-25.6 25.6-44.8 51.2-44.8s51.2 19.2 51.2 51.2v364.8c268.8 70.4 544-108.8 819.2-25.6 12.8 6.4 25.6 25.6 25.6 44.8 0 172.8 0 339.2 0 512 0 12.8-12.8 25.6-32 19.2z" />
<glyph unicode="&#xe910;" glyph-name="info-o" d="M512 960c-281.6 0-512-230.4-512-512s230.4-512 512-512 512 230.4 512 512-230.4 512-512 512zM512 32c-230.4 0-416 185.6-416 416s185.6 416 416 416 416-185.6 416-416-185.6-416-416-416zM512 544c-25.6 0-51.2-19.2-51.2-51.2v-300.8c0-25.6 19.2-51.2 51.2-51.2s51.2 19.2 51.2 51.2v300.8c0 25.6-25.6 51.2-51.2 51.2zM569.6 665.6c0-31.812-25.788-57.6-57.6-57.6s-57.6 25.788-57.6 57.6c0 31.812 25.788 57.6 57.6 57.6s57.6-25.788 57.6-57.6z" />
<glyph unicode="&#xe911;" glyph-name="manage-symbols" d="M998.4 396.8l-102.4 102.4c0 0 0 0-6.4 6.4-38.4 38.4-102.4 38.4-134.4 0l-275.2-275.2c-12.8-12.8-25.6-32-25.6-57.6l-25.6-185.6c0-12.8 0-32 12.8-38.4s25.6-12.8 38.4-12.8c0 0 6.4 0 6.4 0l185.6 25.6c19.2 0 38.4 12.8 57.6 25.6l275.2 275.2c25.6 38.4 25.6 96-6.4 134.4zM652.8 57.6c0 0 0 0 0 0l-121.6-19.2 19.2 121.6 275.2 275.2c0 0 0 0 0 0l102.4-102.4-275.2-275.2zM281.6 166.4h-102.4c0 0 0 0 0 0-19.2 0-44.8 6.4-57.6 25.6-12.8 12.8-25.6 38.4-25.6 57.6v531.2c0 44.8 38.4 83.2 83.2 83.2h524.8c44.8 0 83.2-38.4 83.2-83.2v-102.4c0-25.6 19.2-51.2 51.2-51.2s51.2 19.2 51.2 51.2v102.4c0 96-83.2 179.2-185.6 179.2h-524.8c-96 0-179.2-83.2-179.2-179.2v-524.8c0-44.8 19.2-96 51.2-128s76.8-51.2 128-51.2c0 0 0 0 0 0h96c25.6 0 51.2 19.2 51.2 51.2s-19.2 38.4-44.8 38.4zM486.4 358.4v115.2h108.8c25.6 0 51.2 19.2 51.2 51.2s-25.6 44.8-51.2 44.8h-108.8v108.8c0 25.6-19.2 51.2-51.2 51.2s-44.8-25.6-44.8-51.2v-108.8h-108.8c-25.6 0-51.2-19.2-51.2-51.2s19.2-51.2 51.2-51.2h108.8v-108.8c0-25.6 19.2-51.2 51.2-51.2s44.8 25.6 44.8 51.2z" />
<glyph unicode="&#xe912;" glyph-name="minus" d="M896 499.2h-768c-25.6 0-51.2-25.6-51.2-51.2s25.6-51.2 51.2-51.2h768c25.6 0 51.2 19.2 51.2 51.2s-25.6 51.2-51.2 51.2z" />
<glyph unicode="&#xe913;" glyph-name="plus" d="M896 499.2h-332.8v332.8c0 25.6-19.2 51.2-51.2 51.2s-51.2-25.6-51.2-51.2v-332.8h-332.8c-25.6 0-51.2-25.6-51.2-51.2s25.6-51.2 51.2-51.2h332.8v-332.8c0-25.6 19.2-51.2 51.2-51.2s51.2 19.2 51.2 51.2v332.8h332.8c25.6 0 51.2 19.2 51.2 51.2s-25.6 51.2-51.2 51.2z" />
<glyph unicode="&#xe914;" glyph-name="reload" d="M998.4 729.6c-25.6 12.8-51.2 6.4-64-19.2l-51.2-96c-38.4 96-108.8 179.2-198.4 230.4-108.8 57.6-230.4 76.8-352 44.8-115.2-32-211.2-108.8-275.2-217.6-57.6-102.4-70.4-230.4-38.4-345.6s108.8-217.6 217.6-275.2c70.4-38.4 147.2-57.6 224-57.6 38.4 0 83.2 6.4 121.6 19.2 115.2 32 217.6 108.8 275.2 217.6 12.8 25.6 6.4 51.2-19.2 64s-51.2 6.4-64-19.2c-44.8-83.2-128-147.2-217.6-172.8-96-25.6-192-12.8-275.2 32s-147.2 128-172.8 217.6c-25.6 96-12.8 192 32 275.2 51.2 83.2 128 140.8 217.6 166.4 96 25.6 192 12.8 275.2-32 70.4-44.8 128-108.8 160-185.6l-108.8 64c-25.6 12.8-51.2 6.4-64-19.2s-6.4-51.2 19.2-64l204.8-115.2c0 0 6.4 0 6.4 0s0 0 0 0c6.4 0 6.4-6.4 12.8-6.4 0 0 0 0 6.4 0 0 0 0 0 0 0s6.4 0 6.4 0 12.8 6.4 19.2 6.4c0 6.4 6.4 12.8 6.4 19.2 0 0 0 0 0 0l115.2 204.8c12.8 19.2 6.4 51.2-19.2 64z" />
<glyph unicode="&#xe915;" glyph-name="sort-ascending" d="M540.8 360.96c-16-16-41.6-16-56.96 0l-117.76 117.76c-16 16-16 41.6 0 56.96 7.68 7.68 17.92 11.52 28.8 11.52h236.16c22.4 0 40.32-17.92 40.32-40.32 0-10.88-4.48-21.12-11.52-28.8l-119.040-117.12z" />
<glyph unicode="&#xe916;" glyph-name="sort-descending" d="M483.2 535.040c16 16 41.6 16 56.96 0l117.76-117.76c16-16 16-41.6 0-56.96-7.68-7.68-17.92-11.52-28.8-11.52h-236.16c-22.4 0-40.32 17.92-40.32 40.32 0 10.88 4.48 21.12 11.52 28.8l119.040 117.12z" />
<glyph unicode="&#xe917;" glyph-name="delete" d="M972.8 793.6h-198.4v64c0 57.6-44.8 108.8-108.8 108.8h-320c-51.2-6.4-102.4-51.2-102.4-115.2v-64h-192c-32 6.4-51.2-19.2-51.2-44.8s19.2-51.2 51.2-51.2h70.4v-595.2c-6.4-89.6 70.4-160 160-160h460.8c89.6 0 166.4 70.4 166.4 166.4v595.2h70.4c25.6 0 51.2 19.2 51.2 51.2s-25.6 44.8-57.6 44.8zM339.2 851.2c0 6.4 6.4 12.8 12.8 12.8h320c6.4 0 12.8-6.4 12.8-12.8v-64h-345.6v64zM812.8 102.4c0-38.4-32-70.4-70.4-70.4h-460.8c-38.4 0-70.4 32-70.4 70.4v595.2h601.6v-595.2zM339.2 563.2c-25.6 0-51.2-19.2-51.2-51.2v-288c0-25.6 19.2-51.2 51.2-51.2s44.8 25.6 44.8 51.2v294.4c0 25.6-19.2 44.8-44.8 44.8zM512 563.2c-25.6 0-51.2-19.2-51.2-51.2v-288c0-25.6 19.2-51.2 51.2-51.2s51.2 19.2 51.2 51.2v294.4c0 25.6-25.6 44.8-51.2 44.8zM684.8 563.2c-25.6 0-51.2-19.2-51.2-51.2v-288c0-25.6 19.2-51.2 51.2-51.2s51.2 19.2 51.2 51.2v294.4c0 25.6-25.6 44.8-51.2 44.8z" />
<glyph unicode="&#xe918;" glyph-name="edit" d="M1024 697.6c0 44.8-19.2 89.6-51.2 121.6l-96 96c-64 64-172.8 64-243.2 0l-620.8-620.8c-6.4-6.4-6.4-12.8-12.8-19.2 0 0 0 0 0-6.4s0-6.4 0-12.8v-268.8c0-32 19.2-51.2 51.2-51.2h268.8c6.4 0 12.8 0 12.8 0s0 0 6.4 0 12.8 6.4 19.2 12.8l576 576c0 0 0 0 0 0s0 0 0 0l38.4 51.2c32 32 51.2 76.8 51.2 121.6zM812.8 844.8l96-96c12.8-12.8 19.2-32 19.2-51.2s-6.4-38.4-19.2-51.2l-12.8-12.8-204.8 198.4 12.8 12.8c32 25.6 83.2 25.6 108.8 0zM96 230.4l531.2 531.2 198.4-198.4-531.2-531.2h-198.4v198.4z" />
<glyph unicode="&#xe919;" glyph-name="calendar" d="M876.8 902.4h-89.6v6.4c6.4 32-19.2 51.2-44.8 51.2s-51.2-19.2-51.2-51.2v-12.8h-364.8v12.8c0 32-19.2 51.2-44.8 51.2s-51.2-19.2-51.2-51.2v-12.8h-83.2c-83.2 6.4-147.2-64-147.2-140.8v-672c0-83.2 64-147.2 147.2-147.2h736c76.8 0 147.2 64 147.2 147.2v672c-6.4 76.8-70.4 147.2-153.6 147.2zM147.2 806.4h89.6v-12.8c-6.4-25.6 19.2-51.2 44.8-51.2s44.8 25.6 44.8 51.2v12.8h371.2v-12.8c0-25.6 19.2-51.2 51.2-51.2s51.2 19.2 51.2 51.2v12.8h89.6c25.6 0 51.2-25.6 51.2-51.2v-96h-832v96c-12.8 25.6 6.4 51.2 38.4 51.2zM876.8 32h-729.6c-25.6 0-51.2 25.6-51.2 51.2v473.6h832v-480c0-19.2-19.2-44.8-51.2-44.8zM243.2 448c-6.4-12.8-12.8-25.6-12.8-38.4 0-6.4 0-12.8 0-19.2 6.4-6.4 12.8-6.4 12.8-12.8 12.8-12.8 25.6-12.8 38.4-12.8s25.6 6.4 32 12.8c6.4 6.4 6.4 6.4 12.8 12.8 0 6.4 6.4 12.8 6.4 19.2-6.4 12.8-12.8 25.6-19.2 38.4-19.2 12.8-51.2 12.8-70.4 0zM480 448c-12.8-12.8-19.2-25.6-19.2-38.4 0-6.4 0-12.8 6.4-19.2 0-6.4 6.4-6.4 12.8-12.8 6.4-12.8 19.2-12.8 32-12.8 6.4 0 12.8 0 19.2 6.4 6.4 0 12.8 6.4 12.8 12.8 6.4 0 12.8 0 12.8 6.4s6.4 12.8 6.4 19.2c0 12.8-6.4 25.6-12.8 32-25.6 19.2-51.2 19.2-70.4 6.4zM774.4 441.6c-19.2 19.2-51.2 19.2-70.4 0-6.4-6.4-12.8-19.2-12.8-32s12.8-25.6 19.2-32c6.4-6.4 12.8-6.4 12.8-12.8 6.4 0 12.8-6.4 19.2-6.4s12.8 0 19.2 6.4c6.4 0 12.8 6.4 12.8 12.8 12.8 6.4 12.8 19.2 12.8 32 0 6.4 0 12.8-6.4 19.2 6.4 6.4 0 12.8-6.4 12.8zM313.6 204.8c-19.2 19.2-51.2 19.2-70.4 0-6.4-6.4-6.4-12.8-12.8-12.8s0-12.8 0-19.2c0-6.4 0-12.8 0-19.2s6.4-12.8 12.8-12.8c6.4-6.4 12.8-6.4 19.2-12.8s12.8 0 19.2 0c12.8 0 25.6 6.4 32 12.8 6.4 0 6.4 6.4 12.8 12.8 0 6.4 6.4 12.8 6.4 19.2s0 12.8-6.4 19.2-6.4 12.8-12.8 12.8zM544 204.8c-19.2 19.2-51.2 19.2-70.4 0-6.4-6.4-6.4-12.8-12.8-12.8 0-6.4-6.4-12.8-6.4-19.2s0-12.8 6.4-19.2c0-6.4 6.4-12.8 12.8-12.8 6.4-6.4 6.4-6.4 12.8-12.8 12.8 0 19.2 0 25.6 0 12.8 0 25.6 6.4 32 12.8s6.4 6.4 12.8 12.8c0 6.4 6.4 12.8 6.4 19.2s0 12.8-6.4 19.2-6.4 12.8-12.8 12.8zM774.4 204.8c-19.2 19.2-51.2 19.2-70.4 0 0 0 0-6.4-6.4-12.8s0-12.8 0-19.2c0-6.4 0-12.8 0-19.2s6.4-12.8 12.8-12.8c6.4-6.4 12.8-6.4 12.8-12.8s12.8-6.4 19.2-6.4c6.4 0 12.8 0 19.2 6.4 6.4 0 12.8 6.4 12.8 12.8 6.4 6.4 6.4 6.4 12.8 12.8 0 6.4 6.4 12.8 6.4 19.2s0 12.8-6.4 19.2c0 6.4-6.4 12.8-12.8 12.8z" />
<glyph unicode="&#xe91a;" glyph-name="chevron-right" d="M736 480l-384 384c-19.2 19.2-51.2 19.2-70.4 0s-19.2-51.2 0-70.4l352-345.6-352-352c-19.2-19.2-19.2-51.2 0-70.4 6.4-6.4 19.2-12.8 32-12.8s25.6 6.4 32 12.8l384 384c25.6 25.6 25.6 51.2 6.4 70.4z" />
<glyph unicode="&#xe91b;" glyph-name="tick" d="M928 736c-19.2 19.2-51.2 19.2-70.4 0l-473.6-480-224 230.4c-19.2 19.2-51.2 19.2-70.4 0s-19.2-51.2 0-70.4l262.4-262.4c6.4-6.4 19.2-12.8 32-12.8s25.6 6.4 32 12.8c0 0 0 0 0 0l505.6 512c25.6 25.6 25.6 51.2 6.4 70.4z" />
<glyph unicode="&#xe91c;" glyph-name="notification" d="M947.2 268.8c0 0 0 6.4 0 0l-44.8 64c-12.8 19.2-25.6 51.2-25.6 76.8v179.2c0 192-140.8 345.6-332.8 371.2-192 19.2-377.6-121.6-396.8-320 0-12.8 0-25.6 0-32v-192c0-25.6-6.4-51.2-25.6-76.8l-44.8-64c-32-44.8-19.2-102.4 25.6-134.4 12.8-12.8 32-12.8 51.2-12.8 0 0 0 0 6.4 0h128c6.4-44.8 32-83.2 64-115.2 38.4-51.2 96-76.8 160-76.8 0 0 0 0 0 0 115.2 0 204.8 76.8 230.4 185.6h128c51.2 0 96 38.4 96 89.6 0 19.2-6.4 38.4-19.2 57.6zM512 32c0 0 0 0 0 0-38.4 0-70.4 12.8-96 38.4-12.8 12.8-25.6 32-32 51.2h256c-19.2-51.2-70.4-89.6-128-89.6zM697.6 217.6c0 0 0 0 0 0s0 0 0 0h-364.8c0 0-6.4 0-6.4 0-6.4 0-6.4 0-12.8 0h-160l44.8 64c25.6 38.4 38.4 83.2 38.4 128v192c0 6.4 0 19.2 0 25.6 19.2 134.4 134.4 236.8 268.8 236.8 12.8 0 19.2 0 32 0 140.8-12.8 243.2-134.4 243.2-275.2v-179.2c0-44.8 12.8-89.6 38.4-128l44.8-64h-166.4z" />
<glyph unicode="&#xe91d;" glyph-name="more" d="M140.8 588.8c-76.8 0-140.8-64-140.8-140.8s64-140.8 140.8-140.8c76.8 0 140.8 64 140.8 140.8s-64 140.8-140.8 140.8zM140.8 403.2c-25.6 0-44.8 19.2-44.8 44.8s19.2 44.8 44.8 44.8c25.6 0 44.8-19.2 44.8-44.8s-19.2-44.8-44.8-44.8zM512 588.8c-76.8 0-140.8-64-140.8-140.8s64-140.8 140.8-140.8c76.8 0 140.8 64 140.8 140.8s-64 140.8-140.8 140.8zM512 403.2c-25.6 0-44.8 19.2-44.8 44.8s19.2 44.8 44.8 44.8 44.8-19.2 44.8-44.8-19.2-44.8-44.8-44.8zM883.2 588.8c-76.8 0-140.8-64-140.8-140.8s64-140.8 140.8-140.8 140.8 64 140.8 140.8c0 76.8-64 140.8-140.8 140.8zM883.2 403.2c-25.6 0-44.8 19.2-44.8 44.8s19.2 44.8 44.8 44.8 44.8-19.2 44.8-44.8-19.2-44.8-44.8-44.8z" />
<glyph unicode="&#xe91e;" glyph-name="more-vertical" d="M371.2 76.8c0-76.8 64-140.8 140.8-140.8s140.8 64 140.8 140.8-64 140.8-140.8 140.8-140.8-64-140.8-140.8zM556.8 76.8c0-25.6-19.2-44.8-44.8-44.8s-44.8 19.2-44.8 44.8c0 25.6 19.2 44.8 44.8 44.8s44.8-19.2 44.8-44.8zM371.2 448c0-76.8 64-140.8 140.8-140.8s140.8 64 140.8 140.8-64 140.8-140.8 140.8-140.8-64-140.8-140.8zM556.8 448c0-25.6-19.2-44.8-44.8-44.8s-44.8 19.2-44.8 44.8 19.2 44.8 44.8 44.8c25.6 0 44.8-19.2 44.8-44.8zM371.2 819.2c0-76.8 64-140.8 140.8-140.8s140.8 64 140.8 140.8-64 140.8-140.8 140.8-140.8-64-140.8-140.8zM556.8 819.2c0-25.6-19.2-44.8-44.8-44.8s-44.8 19.2-44.8 44.8 19.2 44.8 44.8 44.8 44.8-19.2 44.8-44.8z" />
<glyph unicode="&#xe91f;" glyph-name="chevron-down" d="M928 678.4c-19.2 19.2-51.2 19.2-70.4 0l-345.6-345.6-352 345.6c-19.2 19.2-51.2 19.2-70.4 0s-19.2-51.2 0-70.4l384-384c6.4-6.4 19.2-12.8 32-12.8s25.6 6.4 32 12.8l384 384c25.6 25.6 25.6 51.2 6.4 70.4z" />
<glyph unicode="&#xe920;" glyph-name="camera" d="M852.8 11.2c0 0 0 0 0 0h-672c-102.4 0-179.2 83.2-179.2 179.2v358.4c0 102.4 83.2 179.2 179.2 179.2 25.6 0 51.2 6.4 64 25.6l76.8 83.2c38.4 25.6 83.2 38.4 128 44.8h121.6c51.2 0 96-19.2 128-57.6l70.4-76.8c12.8-12.8 38.4-25.6 64-25.6 102.4 0 185.6-83.2 185.6-179.2v-352c0-44.8-12.8-89.6-44.8-121.6-25.6-32-70.4-57.6-121.6-57.6 6.4 0 0 0 0 0zM180.8 632c-44.8 0-83.2-38.4-83.2-83.2v-352c0-44.8 38.4-83.2 83.2-83.2h672c19.2 0 38.4 6.4 51.2 25.6 12.8 12.8 19.2 32 19.2 51.2v352c0 44.8-38.4 83.2-83.2 83.2-51.2 0-96 19.2-134.4 51.2l-76.8 83.2c-12.8 19.2-32 25.6-51.2 25.6h-121.6c-25.6 0-44.8-6.4-70.4-19.2l-70.4-76.8c-32-38.4-83.2-57.6-134.4-57.6zM513.6 177.6c-121.6 0-217.6 96-217.6 217.6s96 217.6 217.6 217.6c121.6 0 217.6-96 217.6-217.6s-96-217.6-217.6-217.6zM513.6 510.4c-64 0-121.6-51.2-121.6-121.6 0-64 51.2-121.6 121.6-121.6s121.6 51.2 121.6 121.6c0 70.4-51.2 121.6-121.6 121.6z" />
<glyph unicode="&#xe921;" glyph-name="log-out" d="M1017.6 467.2c0 6.4-6.4 12.8-12.8 12.8l-217.6 224c-19.2 19.2-51.2 19.2-70.4 0s-19.2-51.2 0-70.4l140.8-140.8h-556.8c-25.6 6.4-44.8-19.2-44.8-44.8s19.2-51.2 51.2-51.2h556.8l-147.2-140.8c-19.2-19.2-19.2-51.2 0-70.4 6.4-6.4 19.2-12.8 32-12.8s25.6 6.4 32 12.8l224 224c6.4 6.4 6.4 12.8 12.8 12.8 6.4 19.2 6.4 32 0 44.8zM556.8 198.4c-25.6 0-51.2-19.2-51.2-51.2v-70.4c0-25.6-19.2-51.2-51.2-51.2h-320c-25.6 0-51.2 19.2-51.2 51.2v742.4c0 25.6 19.2 51.2 51.2 51.2h320c38.4-6.4 57.6-25.6 57.6-51.2v-70.4c0-25.6 19.2-51.2 51.2-51.2s51.2 19.2 51.2 51.2v70.4c-6.4 76.8-70.4 140.8-153.6 140.8h-320c-76.8 0-140.8-64-140.8-140.8v-736c0-83.2 64-147.2 140.8-147.2h320c76.8 0 140.8 64 140.8 140.8v70.4c6.4 32-12.8 51.2-44.8 51.2z" />
<glyph unicode="&#xe922;" glyph-name="clock" d="M512 960c-281.6 0-512-230.4-512-512s230.4-512 512-512 512 230.4 512 512-230.4 512-512 512zM512 32c-230.4 0-416 185.6-416 416s185.6 416 416 416 416-185.6 416-416-185.6-416-416-416zM723.2 499.2h-160v236.8c0 25.6-19.2 51.2-51.2 51.2s-51.2-25.6-51.2-51.2v-288c0-25.6 19.2-51.2 51.2-51.2h211.2c25.6 0 51.2 19.2 51.2 51.2s-19.2 51.2-51.2 51.2z" />
<glyph unicode="&#xe923;" glyph-name="eye" d="M1017.6 428.8c0 0 0 6.4 0 0 6.4 12.8 6.4 25.6 0 32 0 0 0 0 0 6.4-76.8 211.2-281.6 352-505.6 352s-428.8-140.8-505.6-345.6c0 0 0 0 0 0-6.4-12.8-6.4-19.2-6.4-25.6 0 0 0 0 0 0 0-6.4 0-12.8 0-19.2 0 0 0 0 0 0s0 0 0 0 0-6.4 0-6.4c76.8-204.8 281.6-345.6 505.6-345.6s422.4 140.8 505.6 345.6c6.4 0 6.4 6.4 6.4 6.4s0 0 0 0zM512 179.2c-179.2 0-345.6 108.8-409.6 275.2 64 160 230.4 262.4 409.6 262.4s339.2-108.8 409.6-268.8c-64-160-230.4-268.8-409.6-268.8zM512 620.8c-89.6 0-166.4-76.8-166.4-166.4s76.8-166.4 166.4-166.4 166.4 76.8 166.4 166.4-76.8 166.4-166.4 166.4zM512 377.6c-38.4 0-70.4 32-70.4 70.4s32 76.8 70.4 76.8 70.4-32 70.4-70.4-32-76.8-70.4-76.8z" />
<glyph unicode="&#xe924;" glyph-name="eye-blocked" d="M1017.6 467.2c0 0 0 0 0 0-38.4 102.4-102.4 179.2-185.6 236.8l172.8 172.8c19.2 19.2 19.2 51.2 0 70.4s-51.2 19.2-70.4 0l-185.6-185.6c-70.4 32-153.6 57.6-236.8 57.6-224 0-428.8-140.8-505.6-345.6 0 0 0 0 0 0-6.4-12.8-6.4-19.2-6.4-25.6 0 0 0 0 0 0 0-6.4 0-12.8 0-19.2 0 0 0 0 0 0s0 0 0 0 0-6.4 0-6.4c38.4-96 102.4-172.8 179.2-236.8l-172.8-172.8c-19.2-19.2-19.2-51.2 0-70.4 19.2 0 32-6.4 44.8-6.4s25.6 6.4 32 12.8l185.6 185.6c76.8-38.4 153.6-57.6 243.2-57.6 224 0 422.4 140.8 505.6 345.6 0 0 0 6.4 0 6.4s0 0 0 0 0 0 0 0c6.4 12.8 6.4 25.6 0 38.4zM102.4 448c64 166.4 230.4 268.8 409.6 268.8 57.6 0 115.2-12.8 166.4-32l-83.2-89.6c-25.6 12.8-51.2 25.6-83.2 25.6-89.6 0-166.4-76.8-166.4-166.4 0-32 6.4-57.6 19.2-83.2l-108.8-115.2c-70.4 51.2-121.6 115.2-153.6 192zM441.6 454.4c0 38.4 32 70.4 70.4 70.4 0 0 6.4 0 6.4 0l-76.8-70.4c0-6.4 0-6.4 0 0zM582.4 448c0-38.4-32-70.4-70.4-70.4l70.4 70.4zM512 179.2c-57.6 0-115.2 12.8-166.4 32l96 96c25.6-12.8 51.2-19.2 76.8-19.2 89.6 0 166.4 76.8 166.4 166.4 0 25.6-6.4 51.2-19.2 76.8l102.4 108.8c64-44.8 121.6-115.2 153.6-192-64-160-230.4-268.8-409.6-268.8z" />
<glyph unicode="&#xe925;" glyph-name="user-profile" d="M512 960c-281.6 0-512-230.4-512-512s230.4-512 512-512 512 230.4 512 512-230.4 512-512 512zM288 96c51.2 70.4 140.8 115.2 230.4 108.8 83.2 0 166.4-44.8 211.2-108.8-64-38.4-140.8-64-224-64-76.8 0-153.6 25.6-217.6 64zM806.4 160c-64 89.6-172.8 147.2-288 147.2 0 0 0 0 0 0-121.6 6.4-236.8-51.2-307.2-147.2-70.4 70.4-115.2 172.8-115.2 288 0 230.4 185.6 416 416 416s416-185.6 416-416c0-115.2-44.8-217.6-121.6-288zM512 780.8c-115.2 0-204.8-89.6-204.8-204.8s89.6-204.8 204.8-204.8 204.8 96 204.8 204.8-89.6 204.8-204.8 204.8zM512 460.8c-64 0-115.2 51.2-115.2 115.2s51.2 115.2 115.2 115.2 115.2-51.2 115.2-115.2-51.2-115.2-115.2-115.2z" />
<glyph unicode="&#xe926;" glyph-name="globe" d="M512 960c-281.6 0-512-230.4-512-512s230.4-512 512-512 512 230.4 512 512-230.4 512-512 512zM512 32c-38.4 0-96 76.8-121.6 211.2h249.6c-32-134.4-89.6-211.2-128-211.2zM371.2 339.2c0 38.4 0 70.4 0 108.8s0 70.4 6.4 108.8h275.2c6.4-32 6.4-70.4 6.4-108.8s0-70.4-6.4-108.8h-281.6zM96 448c0 38.4 6.4 70.4 12.8 108.8h166.4c0-38.4-6.4-70.4-6.4-108.8s0-70.4 6.4-108.8h-166.4c-6.4 38.4-12.8 70.4-12.8 108.8zM512 864c38.4 0 96-76.8 121.6-211.2h-243.2c25.6 134.4 83.2 211.2 121.6 211.2zM748.8 556.8h166.4c6.4-32 12.8-70.4 12.8-108.8s-6.4-70.4-12.8-108.8h-166.4c6.4 38.4 6.4 70.4 6.4 108.8s-6.4 70.4-6.4 108.8zM876.8 652.8h-140.8c-12.8 64-32 128-57.6 179.2 83.2-38.4 153.6-102.4 198.4-179.2zM352 832c-25.6-51.2-44.8-115.2-64-179.2h-140.8c44.8 76.8 115.2 140.8 204.8 179.2zM147.2 243.2h140.8c12.8-64 32-128 57.6-179.2-83.2 38.4-153.6 102.4-198.4 179.2zM672 64c25.6 51.2 44.8 115.2 57.6 179.2h140.8c-38.4-76.8-108.8-140.8-198.4-179.2z" />
<glyph unicode="&#xe927;" glyph-name="user" d="M512 428.8c147.2 0 268.8 121.6 268.8 268.8s-121.6 262.4-268.8 262.4c-147.2 0-268.8-121.6-268.8-268.8s121.6-262.4 268.8-262.4zM512 864c96 0 172.8-76.8 172.8-172.8s-76.8-166.4-172.8-166.4c-96 0-172.8 76.8-172.8 172.8s76.8 166.4 172.8 166.4zM800 249.6h-582.4c-108.8 0-192-89.6-192-192v-70.4c0-25.6 19.2-51.2 51.2-51.2s51.2 19.2 51.2 51.2v70.4c0 51.2 44.8 96 96 96h582.4c51.2 0 96-44.8 96-96v-70.4c0-25.6 19.2-51.2 51.2-51.2s51.2 19.2 51.2 51.2v70.4c-6.4 108.8-96 192-204.8 192z" />
<glyph unicode="&#xe928;" glyph-name="lock" d="M838.4 614.4h-44.8v64c0 153.6-128 281.6-281.6 281.6s-281.6-128-281.6-281.6v-70.4h-44.8c-76.8 0-134.4-57.6-134.4-134.4v-403.2c0-76.8 64-134.4 134.4-134.4h652.8c76.8 0 134.4 57.6 134.4 134.4v409.6c0 70.4-57.6 134.4-134.4 134.4zM326.4 678.4c0 102.4 83.2 185.6 185.6 185.6s185.6-83.2 185.6-185.6v-70.4h-371.2v70.4zM883.2 70.4c0-19.2-19.2-38.4-38.4-38.4h-659.2c-25.6 0-38.4 19.2-38.4 38.4v409.6c0 19.2 19.2 38.4 38.4 38.4h652.8c25.6 0 38.4-19.2 38.4-38.4v-409.6z" />
<glyph unicode="&#xe929;" glyph-name="sorting" d="M972.8 716.8h-921.6c-32 0-51.2 25.6-51.2 51.2s19.2 51.2 51.2 51.2h928c25.6 0 44.8-25.6 44.8-51.2s-19.2-51.2-51.2-51.2zM819.2 396.8h-614.4c-25.6 0-44.8 25.6-44.8 51.2s19.2 51.2 51.2 51.2h608c25.6 0 51.2-19.2 51.2-51.2s-25.6-51.2-51.2-51.2zM652.8 76.8h-281.6c-32 0-51.2 25.6-51.2 51.2s19.2 51.2 51.2 51.2h288c25.6 0 51.2-19.2 51.2-51.2s-25.6-51.2-57.6-51.2z" />
</font>
</defs>
</svg>
